<svg width="141" height="24" viewBox="0 0 141 24" fill="none" xmlns="http://www.w3.org/2000/svg">
<g clip-path="url(#clip0_91_97)">
<path d="M22.3014 6.25599H19.0328C18.9508 6.25561 18.8694 6.26919 18.7919 6.29615C18.6999 6.32692 18.615 6.3756 18.5419 6.43938C18.4688 6.50316 18.4091 6.58079 18.3662 6.66776C18.3232 6.75474 18.298 6.84935 18.2918 6.94615C18.2856 7.04294 18.2986 7.14 18.3301 7.23173C18.3301 7.23173 22.0845 22.8918 22.3094 23.5904H27.1279C22.3014 6.256 24.7668 14.9774 22.3014 6.25599Z" fill="#231F20"/>
<path d="M42.246 12.1747C42.0553 11.3731 41.6906 10.6233 41.1779 9.97824C40.6342 9.33112 39.9312 8.83703 39.1381 8.54475C38.1076 8.17977 37.0186 8.00824 35.9258 8.03881C34.7064 8.03475 33.4886 8.12739 32.2838 8.31587C31.3277 8.45433 30.3809 8.65146 29.449 8.90614V23.5944H33.7575V11.8575C34.0265 11.8173 34.3357 11.7852 34.685 11.753C35.0344 11.7209 35.3596 11.7129 35.6648 11.7129C36.6687 11.7129 37.3513 12.002 37.7207 12.5802C38.0901 13.1584 38.2668 14.1382 38.2668 15.5275V23.5944H42.5632V15.0055C42.5738 14.0525 42.4672 13.1017 42.246 12.1747Z" fill="#231F20"/>
<path d="M55.573 1.85108V8.73347C55.1122 8.52742 54.6338 8.36346 54.1435 8.24359C53.6171 8.12044 53.0779 8.06112 52.5373 8.06691C51.5512 8.04904 50.5722 8.23637 49.6623 8.61702C48.8358 8.97455 48.1073 9.52539 47.5382 10.2232C46.9297 10.9692 46.4765 11.8293 46.2051 12.7529C45.8837 13.8368 45.728 14.9632 45.7433 16.0937C45.7264 17.2101 45.9072 18.3208 46.2773 19.3743C46.6068 20.3048 47.1343 21.1528 47.8233 21.8598C48.5269 22.5626 49.3769 23.1014 50.3128 23.4378C51.389 23.8181 52.5244 24.0031 53.6656 23.9839C54.1836 23.9839 54.7297 23.9598 55.2999 23.9116C55.8701 23.8635 56.4242 23.8032 56.9743 23.7269C57.5244 23.6506 58.0505 23.5583 58.5524 23.4499C59.0543 23.3415 59.496 23.233 59.8815 23.1166V1.16043L55.573 1.85108ZM55.573 20.1733C55.3601 20.2135 55.0911 20.2456 54.7699 20.2737C54.4486 20.3018 54.0832 20.3179 53.6978 20.3179C53.1898 20.3514 52.6813 20.2591 52.2176 20.0489C51.7539 19.8388 51.3492 19.5174 51.0396 19.1132C50.4005 18.1678 50.0849 17.0408 50.1401 15.9009C50.1401 13.125 51.1627 11.7383 53.2079 11.741C53.6513 11.7405 54.0927 11.7986 54.5209 11.9137C54.8928 12.004 55.2489 12.1502 55.577 12.3473L55.573 20.1733Z" fill="#231F20"/>
<path d="M75.6942 11.6245C75.5008 10.8893 75.1283 10.2133 74.6101 9.657C74.0429 9.08351 73.3439 8.65753 72.5743 8.41625C71.5444 8.10145 70.4706 7.95501 69.3941 7.98259C68.8921 7.98259 68.3942 8.00668 67.9044 8.05486C67.4145 8.10305 66.9447 8.15926 66.503 8.22752C66.0613 8.29578 65.6477 8.37207 65.2743 8.46041C64.9008 8.54875 64.5836 8.62906 64.3347 8.70536L64.8808 12.1746C65.4813 11.9634 66.1014 11.8128 66.7319 11.7249C67.4499 11.6203 68.1746 11.568 68.9002 11.5683C70.0004 11.5683 70.7713 11.7892 71.213 12.2309C71.4382 12.4639 71.6135 12.7404 71.7281 13.0435C71.8427 13.3466 71.8943 13.6699 71.8796 13.9936V14.3952C71.5332 14.3041 71.18 14.241 70.8235 14.2064C70.3287 14.1552 69.8313 14.1311 69.3338 14.1342C68.5242 14.1317 67.7166 14.2152 66.9246 14.3831C66.1976 14.5286 65.5018 14.8004 64.8687 15.1862C64.2756 15.549 63.7839 16.056 63.4392 16.6598C63.0641 17.3499 62.8798 18.1275 62.9052 18.9125C62.88 19.719 63.0379 20.5207 63.367 21.2575C63.6663 21.8807 64.1248 22.4139 64.6961 22.8034C65.3239 23.218 66.0262 23.5071 66.764 23.6547C67.6436 23.8361 68.5401 23.9236 69.4382 23.9157C70.7738 23.9312 72.1085 23.8399 73.4295 23.6426C74.5257 23.4579 75.385 23.2973 75.9994 23.1648V14.1984C76.0135 13.3307 75.9109 12.4649 75.6942 11.6245ZM71.8796 20.4584C71.5723 20.5052 71.2626 20.5347 70.952 20.5467C70.5505 20.5668 70.149 20.5749 69.7474 20.5749C69.1021 20.6046 68.4601 20.4662 67.8843 20.1733C67.6512 20.0266 67.4638 19.8176 67.3432 19.57C67.2225 19.3223 67.1735 19.0459 67.2017 18.7719C67.191 18.4661 67.2721 18.164 67.4346 17.9046C67.5912 17.6712 67.8075 17.4841 68.061 17.3625C68.3568 17.2192 68.6743 17.1256 69.0006 17.0855C69.38 17.0359 69.7623 17.0117 70.1449 17.0132C70.4631 17.015 70.7808 17.0351 71.0966 17.0734C71.3596 17.097 71.6211 17.1359 71.8796 17.1899V20.4584Z" fill="#231F20"/>
<path d="M88.965 8.4002C88.6357 8.33194 88.3105 8.27572 87.9812 8.22754C87.652 8.17935 87.3267 8.1392 86.9975 8.11109C86.6682 8.08298 86.3911 8.06693 86.1623 8.06693C84.9812 8.05505 83.8027 8.17628 82.6488 8.42831C81.724 8.63395 80.8111 8.88998 79.9143 9.19525V23.5944H84.2228V11.9699C84.5037 11.897 84.7896 11.8447 85.0781 11.8133C85.3988 11.769 85.7221 11.7448 86.0458 11.741C86.6078 11.7375 87.1687 11.79 87.7202 11.8976C88.2422 12.006 88.696 12.1064 89.0815 12.2028L89.8042 8.64514C89.5327 8.53763 89.2517 8.45563 88.965 8.4002Z" fill="#231F20"/>
<path d="M92.1131 8.38816V23.5944H96.4217V8.38816H92.1131ZM96.0603 2.12816C95.5598 1.69099 94.9178 1.45007 94.2533 1.45007C93.5888 1.45007 92.9469 1.69099 92.4464 2.12816C91.9548 2.62443 91.679 3.29474 91.679 3.99331C91.679 4.69187 91.9548 5.3622 92.4464 5.85846C92.9469 6.29564 93.5888 6.53655 94.2533 6.53655C94.9178 6.53655 95.5598 6.29564 96.0603 5.85846C96.549 5.36068 96.8229 4.69092 96.8229 3.99331C96.8229 3.29569 96.549 2.62595 96.0603 2.12816Z" fill="#231F20"/>
<path d="M105.906 20.0649C105.63 19.9559 105.386 19.7775 105.199 19.5469C105.026 19.3167 104.912 19.048 104.866 18.7639C104.805 18.4206 104.776 18.0725 104.778 17.7239V1.16043L100.473 1.85108V18.5912C100.464 19.3267 100.546 20.0605 100.718 20.7756C100.869 21.3987 101.189 21.9683 101.642 22.4219C102.165 22.9168 102.8 23.2789 103.493 23.478C104.486 23.7563 105.513 23.8915 106.544 23.8795L107.151 20.3219C106.724 20.3071 106.303 20.2202 105.906 20.0649Z" fill="#231F20"/>
<path d="M122.429 12.1746C122.249 11.3749 121.893 10.625 121.389 9.97823C120.869 9.3325 120.189 8.83303 119.418 8.52868C118.434 8.16294 117.388 7.99113 116.338 8.02273C115.897 8.02439 115.457 8.06878 115.025 8.15525C114.647 8.22122 114.274 8.31244 113.909 8.42829V1.16043L109.604 1.85108V23.5944H113.909V12.0301C114.182 11.9538 114.483 11.8815 114.82 11.8133C115.177 11.7438 115.541 11.7102 115.904 11.7129C116.868 11.7129 117.511 12.002 117.884 12.5802C118.257 13.1584 118.422 14.1382 118.422 15.5275V23.5944H122.727V15.0055C122.737 14.0536 122.638 13.1036 122.429 12.1746Z" fill="#231F20"/>
<path d="M140.298 12.6927C139.961 11.7603 139.439 10.9054 138.764 10.179C138.101 9.4841 137.3 8.9368 136.411 8.57287C135.452 8.17893 134.424 7.98229 133.387 7.99466C132.361 7.9843 131.344 8.18095 130.396 8.57287C129.504 8.93851 128.697 9.48544 128.027 10.179C127.342 10.9028 126.81 11.7579 126.465 12.6927C126.076 13.738 125.884 14.8461 125.899 15.9612C125.886 17.0787 126.072 18.1895 126.449 19.2418C126.785 20.1843 127.306 21.0499 127.983 21.7875C128.643 22.4943 129.446 23.0515 130.34 23.4218C131.307 23.8153 132.343 24.0119 133.387 24C134.442 24.0137 135.489 23.8171 136.467 23.4218C137.361 23.0515 138.164 22.4943 138.824 21.7875C139.497 21.0533 140.009 20.186 140.326 19.2418C140.685 18.1858 140.862 17.0764 140.848 15.9612C140.861 14.8476 140.675 13.7406 140.298 12.6927ZM135.656 19.1173C135.413 19.4932 135.075 19.7991 134.677 20.0047C134.28 20.2104 133.835 20.3086 133.387 20.2898C132.938 20.3075 132.491 20.2089 132.091 20.0035C131.691 19.798 131.35 19.4928 131.103 19.1173C130.52 18.1685 130.24 17.0649 130.3 15.9532C130.237 14.85 130.518 13.7546 131.103 12.8171C131.355 12.4485 131.698 12.15 132.097 11.9499C132.497 11.7497 132.941 11.6543 133.387 11.6727C133.832 11.6529 134.274 11.7477 134.671 11.9481C135.069 12.1485 135.408 12.4478 135.656 12.8171C136.237 13.7562 136.517 14.8504 136.459 15.9532C136.52 17.066 136.244 18.1714 135.668 19.1253L135.656 19.1173Z" fill="#231F20"/>
<path d="M5.99102 23.5944C4.40638 23.5944 2.88663 22.9649 1.76612 21.8444C0.645608 20.7239 0.0161133 19.2042 0.0161133 17.6195C0.0161133 16.0349 0.645608 14.5151 1.76612 13.3946C2.88663 12.2741 4.40638 11.6446 5.99102 11.6446V14.7003C5.2168 14.7003 4.47429 15.0079 3.92684 15.5553C3.37938 16.1028 3.07183 16.8453 3.07183 17.6195C3.07183 18.3938 3.37938 19.1363 3.92684 19.6837C4.47429 20.2312 5.2168 20.5387 5.99102 20.5387C6.37471 20.5444 6.75541 20.4706 7.10921 20.322C7.46301 20.1734 7.78226 19.9533 8.0469 19.6754C8.31902 19.4072 8.5343 19.087 8.67987 18.7337C8.82544 18.3805 8.89831 18.0016 8.89415 17.6195H11.9499C11.9541 18.404 11.803 19.1815 11.5052 19.9073C11.2075 20.6331 10.769 21.2927 10.215 21.8482C9.66103 22.4037 9.00257 22.8439 8.2776 23.1436C7.55263 23.4434 6.7755 23.5966 5.99102 23.5944ZM15.5637 22.4822V16.5073H9.31174C8.9318 16.5192 8.55566 16.4285 8.22287 16.2448C7.89007 16.0611 7.6129 15.7911 7.4205 15.4633C7.20326 15.1467 7.07328 14.7785 7.04367 14.3957C7.01407 14.0129 7.08587 13.6291 7.25185 13.2829L9.53259 8.27973H7.08722L6.39256 9.97423L3.77452 9.25547L4.55351 7.39233C4.75958 6.86064 5.12401 6.40508 5.59751 6.08733C6.07633 5.78162 6.63577 5.62637 7.20366 5.64161H12.8252C13.8612 5.64161 14.6107 6.00702 15.0738 6.73782C15.3029 7.1106 15.4288 7.53755 15.4387 7.97498C15.4486 8.41242 15.3421 8.84461 15.13 9.22736L13.4637 12.8653H15.5758C15.9802 12.859 16.3816 12.9364 16.7547 13.0925C17.1279 13.2487 17.4647 13.4803 17.7441 13.7728C18.0312 14.0577 18.2578 14.3977 18.4103 14.7724C18.5628 15.1471 18.638 15.5487 18.6315 15.9531V22.4822H15.5637ZM15.648 5.28023C15.0445 5.27437 14.4615 5.05982 13.9982 4.67301C13.5348 4.28619 13.2196 3.75094 13.1061 3.15813C12.9925 2.56532 13.0876 1.95148 13.3752 1.42081C13.6628 0.890138 14.1252 0.475342 14.6838 0.246849C15.2425 0.0183555 15.8631 -0.0097632 16.4401 0.167271C17.0171 0.344305 17.5151 0.715578 17.8496 1.21806C18.184 1.72055 18.3342 2.32329 18.2747 2.92394C18.2152 3.5246 17.9497 4.08615 17.5232 4.51329C17.2799 4.76286 16.9879 4.95973 16.6653 5.09167C16.3428 5.2236 15.9965 5.28779 15.648 5.28023Z" fill="#231F20"/>
</g>
<defs>
<clipPath id="clip0_91_97">
<rect width="140.86" height="24" fill="white"/>
</clipPath>
</defs>
</svg>
