<svg width="329" height="178" viewBox="0 0 329 178" fill="none" xmlns="http://www.w3.org/2000/svg">
<g clip-path="url(#clip0_178_396)">
<path d="M35.8747 118.932C35.8747 118.932 32.7546 101.284 21.1794 92.5352C16.3236 88.8652 12.7622 83.8762 11.2181 78.1886C10.4863 75.496 10.0178 72.7388 9.81909 69.9558" stroke="#5A5A5A" stroke-width="2" stroke-miterlimit="10"/>
<path d="M2.56 64.4015C3.53523 66.2945 9.99037 70.121 9.99037 70.121C9.99037 70.121 10.8031 62.9724 9.83073 61.0794C8.8584 59.1865 6.44062 58.3951 4.4321 59.314C2.42358 60.233 1.58766 62.5115 2.56 64.4015Z" fill="black"/>
<path d="M1.95912 77.6349C3.86896 78.7249 11.4938 78.6263 11.4938 78.6263C11.4938 78.6263 8.05435 72.2082 6.13 71.1182C5.2141 70.5926 4.1329 70.4329 3.10386 70.6711C2.07482 70.9094 1.17427 71.528 0.58334 72.4024C0.311161 72.8312 0.130412 73.3114 0.0523786 73.813C-0.0256547 74.3147 0.000704712 74.827 0.129809 75.3181C0.258914 75.8091 0.487991 76.2682 0.802737 76.6669C1.11748 77.0655 1.51114 77.395 1.95912 77.6349Z" fill="black"/>
<path d="M11.4242 95.4312C13.6533 95.4631 20.1839 91.7496 20.1839 91.7496C20.1839 91.7496 13.7781 87.839 11.5373 87.8129C9.29663 87.7868 7.47386 89.4595 7.43613 91.5641C7.3984 93.6686 9.19214 95.3964 11.4242 95.4312Z" fill="black"/>
<path d="M21.8093 107.372C24.0036 107.76 31.0973 105.14 31.0973 105.14C31.0973 105.14 25.4809 100.272 23.2896 99.8838C21.0982 99.4954 18.9852 100.858 18.5759 102.928C18.1667 104.997 19.6179 106.972 21.8093 107.372Z" fill="black"/>
<path d="M19.2986 75.5043C18.5382 77.4813 12.5329 81.9137 12.5329 81.9137C12.5329 81.9137 10.9569 74.881 11.7057 72.904C12.4546 70.9269 14.7853 69.9065 16.8809 70.6225C18.9765 71.3386 20.062 73.5272 19.2986 75.5043Z" fill="black"/>
<path d="M31.2743 89.616C29.9189 91.2858 22.7845 93.8223 22.7845 93.8223C22.7845 93.8223 23.4986 86.6621 24.854 84.9923C25.5331 84.182 26.4937 83.6579 27.5433 83.5251C28.5929 83.3923 29.654 83.6606 30.5139 84.2763C30.9314 84.5641 31.2847 84.9351 31.5516 85.366C31.8184 85.7969 31.9931 86.2783 32.0645 86.7799C32.136 87.2815 32.1026 87.7924 31.9666 88.2806C31.8306 88.7687 31.5949 89.2234 31.2743 89.616Z" fill="black"/>
<path d="M40.8874 104.835C39.8512 106.696 33.2741 110.343 33.2741 110.343C33.2741 110.343 32.6936 103.174 33.7298 101.31C34.265 100.402 35.1255 99.7304 36.1375 99.4317C37.1494 99.133 38.2372 99.2293 39.1807 99.7012C39.6413 99.9141 40.0533 100.219 40.3913 100.597C40.7293 100.975 40.9862 101.418 41.1462 101.899C41.3061 102.38 41.3656 102.889 41.3211 103.394C41.2766 103.899 41.129 104.389 40.8874 104.835Z" fill="black"/>
<path opacity="0.25" d="M2.56 64.4015C3.53523 66.2945 9.99037 70.121 9.99037 70.121C9.99037 70.121 10.8031 62.9724 9.83073 61.0794C8.8584 59.1865 6.44062 58.3951 4.4321 59.314C2.42358 60.233 1.58766 62.5115 2.56 64.4015Z" fill="black"/>
<path opacity="0.25" d="M1.95912 77.6349C3.86896 78.7249 11.4938 78.6263 11.4938 78.6263C11.4938 78.6263 8.05435 72.2082 6.13 71.1182C5.2141 70.5926 4.1329 70.4329 3.10386 70.6711C2.07482 70.9094 1.17427 71.528 0.58334 72.4024C0.311161 72.8312 0.130412 73.3114 0.0523786 73.813C-0.0256547 74.3147 0.000704712 74.827 0.129809 75.3181C0.258914 75.8091 0.487991 76.2682 0.802737 76.6669C1.11748 77.0655 1.51114 77.395 1.95912 77.6349Z" fill="black"/>
<path opacity="0.25" d="M11.4242 95.4312C13.6533 95.4631 20.1839 91.7496 20.1839 91.7496C20.1839 91.7496 13.7781 87.839 11.5373 87.8129C9.29663 87.7868 7.47386 89.4595 7.43613 91.5641C7.3984 93.6686 9.19214 95.3964 11.4242 95.4312Z" fill="black"/>
<path opacity="0.25" d="M21.8093 107.372C24.0036 107.76 31.0973 105.14 31.0973 105.14C31.0973 105.14 25.4809 100.272 23.2896 99.8838C21.0982 99.4954 18.9852 100.858 18.5759 102.928C18.1667 104.997 19.6179 106.972 21.8093 107.372Z" fill="black"/>
<path opacity="0.25" d="M19.2986 75.5043C18.5382 77.4813 12.5329 81.9137 12.5329 81.9137C12.5329 81.9137 10.9569 74.881 11.7057 72.904C12.4546 70.9269 14.7853 69.9065 16.8809 70.6225C18.9765 71.3386 20.062 73.5272 19.2986 75.5043Z" fill="black"/>
<path opacity="0.25" d="M31.2743 89.616C29.9189 91.2858 22.7845 93.8223 22.7845 93.8223C22.7845 93.8223 23.4986 86.6621 24.854 84.9923C25.5331 84.182 26.4937 83.6579 27.5433 83.5251C28.5929 83.3923 29.654 83.6606 30.5139 84.2763C30.9314 84.5641 31.2847 84.9351 31.5516 85.366C31.8184 85.7969 31.9931 86.2783 32.0645 86.7799C32.136 87.2815 32.1026 87.7924 31.9666 88.2806C31.8306 88.7687 31.5949 89.2234 31.2743 89.616Z" fill="black"/>
<path opacity="0.25" d="M40.8874 104.835C39.8512 106.696 33.2741 110.343 33.2741 110.343C33.2741 110.343 32.6936 103.174 33.7298 101.31C34.265 100.402 35.1255 99.7304 36.1375 99.4317C37.1494 99.133 38.2372 99.2293 39.1807 99.7012C39.6413 99.9141 40.0533 100.219 40.3913 100.597C40.7293 100.975 40.9862 101.418 41.1462 101.899C41.3061 102.38 41.3656 102.889 41.3211 103.394C41.2766 103.899 41.129 104.389 40.8874 104.835Z" fill="black"/>
<path d="M35.483 118.469C35.483 118.469 40.2169 101.142 33.3932 88.7203C30.5284 83.5023 29.4255 77.5885 30.45 71.7995C30.9472 69.0454 31.7093 66.3456 32.7256 63.7377" stroke="#5A5A5A" stroke-width="2" stroke-miterlimit="10"/>
<path d="M28.4589 55.8875C28.5373 57.9892 32.7952 63.9551 32.7952 63.9551C32.7952 63.9551 36.612 57.7283 36.5336 55.6237C36.4553 53.5191 34.589 51.8784 32.357 51.9479C30.1249 52.0175 28.3718 53.7858 28.4589 55.8875Z" fill="black"/>
<path d="M22.2128 67.7498C23.487 69.4746 30.5023 72.2981 30.5023 72.2981C30.5023 72.2981 30.1133 65.1176 28.8392 63.3898C28.1937 62.5529 27.2554 61.9905 26.2123 61.8152C25.1691 61.64 24.0983 61.8648 23.2141 62.4448C22.7843 62.7143 22.4149 63.0697 22.1291 63.4885C21.8432 63.9074 21.6472 64.3807 21.5531 64.8788C21.4591 65.3769 21.4692 65.889 21.5827 66.3831C21.6962 66.8771 21.9107 67.3424 22.2128 67.7498Z" fill="black"/>
<path d="M23.2286 87.639C25.2603 88.5086 32.8213 87.6216 32.8213 87.6216C32.8213 87.6216 28.6417 81.6064 26.6158 80.7222C24.5899 79.8381 22.1924 80.673 21.2549 82.5833C20.3174 84.4937 21.2027 86.7577 23.2286 87.639Z" fill="black"/>
<path d="M27.5939 102.525C29.4312 103.716 37.0502 104.035 37.0502 104.035C37.0502 104.035 34.0084 97.4401 32.1711 96.2457C31.2839 95.6714 30.212 95.4532 29.1705 95.6349C28.1289 95.8166 27.1946 96.3848 26.5548 97.2256C26.2546 97.6348 26.0425 98.1017 25.9319 98.5968C25.8213 99.0919 25.8146 99.6046 25.9122 100.102C26.0098 100.6 26.2096 101.073 26.4991 101.489C26.7885 101.906 27.1613 102.259 27.5939 102.525Z" fill="black"/>
<path d="M38.992 72.4314C37.4479 73.9476 30.0524 75.7072 30.0524 75.7072C30.0524 75.7072 31.6226 68.6687 33.1696 67.1526C33.9335 66.4211 34.9452 66.0039 36.0032 65.984C37.0613 65.9641 38.088 66.343 38.8788 67.0453C39.2589 67.3803 39.5653 67.7904 39.7786 68.2497C39.9919 68.7089 40.1075 69.2074 40.1182 69.7136C40.1288 70.2197 40.0342 70.7226 39.8404 71.1904C39.6466 71.6582 39.3577 72.0808 38.992 72.4314Z" fill="black"/>
<path d="M43.8624 89.9001C41.9061 90.9118 34.2842 90.506 34.2842 90.506C34.2842 90.506 38.0139 84.2328 39.9702 83.2211C40.9054 82.7311 41.9921 82.6146 43.0101 82.895C44.0282 83.1755 44.9014 83.8319 45.453 84.7314C45.7063 85.171 45.8664 85.658 45.9232 86.162C45.98 86.666 45.9323 87.1764 45.7831 87.6612C45.6339 88.1461 45.3864 88.595 45.0559 88.9802C44.7255 89.3654 44.3192 89.6785 43.8624 89.9001Z" fill="black"/>
<path d="M46.1234 107.493C44.3819 108.804 36.7977 109.612 36.7977 109.612C36.7977 109.612 39.3519 102.838 41.0992 101.53C41.9483 100.9 43.0044 100.612 44.0564 100.726C45.1084 100.839 46.0788 101.345 46.7736 102.142C47.1021 102.528 47.3471 102.977 47.4931 103.462C47.6391 103.947 47.683 104.457 47.6219 104.96C47.5608 105.463 47.3961 105.947 47.1382 106.383C46.8803 106.819 46.5348 107.197 46.1234 107.493Z" fill="black"/>
<path opacity="0.1" d="M324.649 161.578C323.412 163.011 321.995 164.277 320.432 165.346C313.356 170.231 303.287 172.252 293.535 173.527C291.365 173.811 289.19 174.067 287.007 174.295C273.487 175.727 259.779 176.206 246.082 176.559C244.12 176.611 242.157 176.661 240.193 176.707C226.38 177.046 212.555 177.385 198.733 177.632C182.14 177.922 165.543 178.093 148.962 177.962C132.681 177.838 116.416 177.435 100.177 176.594C98.615 176.517 97.0544 176.433 95.4948 176.342C81.2726 175.533 66.8066 174.313 53.2085 171.434C46.1629 169.992 39.2569 167.939 32.5689 165.297C27.3444 163.187 22.3318 160.578 18.3089 157.435C15.1742 154.986 12.6375 152.217 11.0527 149.098C7.41589 141.929 9.33734 133.87 13.4995 126.843C17.6617 119.817 23.9107 113.509 29.3007 106.911C40.7916 92.8367 48.2858 75.0607 37.683 60.6417C34.6354 56.4992 30.2265 52.864 27.7449 48.5389C24.1749 42.3092 24.9411 35.3026 26.2443 28.6467C27.9858 19.8052 31.2047 10.2707 41.1834 4.74837C51.5569 -0.991416 66.2784 -0.701529 79.1509 1.35088C98.2783 4.4005 116.013 10.6273 133.811 16.4251L133.999 16.4859L136.286 17.2281L137.308 17.5556C138.8 18.0368 140.299 18.5123 141.804 18.9819L142.353 19.15H142.393L142.625 19.2225L142.84 19.2863L143.203 19.4022C145.061 19.982 146.927 20.5434 148.802 21.0865H148.84C149.101 21.1647 149.359 21.2401 149.62 21.3126H149.638C150.708 21.6257 151.78 21.931 152.854 22.2286L153.222 22.333L153.289 22.3504H153.33C166.754 26.0725 180.628 28.8931 194.975 29.3077C213.078 29.8324 234.199 25.9189 246.218 15.7525C257.889 5.87314 279.829 5.12233 295.65 11.0911C310.743 16.7816 320.507 28.8294 319.77 40.8597C318.702 58.3719 298.393 71.8169 286.278 87.1375C280.633 94.2803 276.642 102.861 280.528 110.563C287.59 124.556 315.515 127.794 325.616 140.831C330.553 147.231 329.958 155.418 324.649 161.578Z" fill="black"/>
<path d="M90.7754 125.206L53.2172 171.425C46.1716 169.983 39.2656 167.93 32.5776 165.288C27.3531 163.178 22.3405 160.569 18.3176 157.427L59.562 123.611L90.7754 125.206Z" fill="black"/>
<path d="M324.649 161.578C323.412 163.011 321.995 164.277 320.432 165.346C313.356 170.231 303.287 172.252 293.534 173.527C291.365 173.811 289.189 174.067 287.007 174.295L247.115 125.206L278.34 123.611L324.649 161.578Z" fill="black"/>
<path d="M151.643 126.159L151.577 127.461L151.556 127.82L150.134 155.36V155.395L149.986 158.572L149.911 159.995L148.985 177.968C132.705 177.843 116.439 177.441 100.2 176.6L120.752 126.174L151.643 126.159Z" fill="black"/>
<path d="M246.09 176.545C244.128 176.597 242.165 176.646 240.201 176.693C226.388 177.032 212.564 177.371 198.742 177.617L182.549 126.159H212.819L246.09 176.545Z" fill="black"/>
<path opacity="0.1" d="M90.7754 125.206L53.2172 171.425C46.1716 169.983 39.2656 167.93 32.5776 165.288C27.3531 163.178 22.3405 160.569 18.3176 157.427L59.562 123.611L90.7754 125.206Z" fill="black"/>
<path opacity="0.1" d="M324.649 161.578C323.412 163.011 321.995 164.277 320.432 165.346C313.356 170.231 303.287 172.252 293.534 173.527C291.365 173.811 289.189 174.067 287.007 174.295L247.115 125.206L278.34 123.611L324.649 161.578Z" fill="black"/>
<path opacity="0.1" d="M151.643 126.159L151.577 127.461L151.556 127.82L150.134 155.36V155.395L149.986 158.572L149.911 159.995L148.985 177.968C132.705 177.843 116.439 177.441 100.2 176.6L120.752 126.174L151.643 126.159Z" fill="black"/>
<path opacity="0.1" d="M246.09 176.545C244.128 176.597 242.165 176.646 240.201 176.693C226.388 177.032 212.564 177.371 198.742 177.617L182.549 126.159H212.819L246.09 176.545Z" fill="black"/>
<path d="M170.663 154.513C169.825 154.476 165.245 156.409 165.245 156.409C165.245 156.409 163.793 157.218 160.087 157.737C157.666 158.079 157.344 156.914 157.411 156.064C157.433 155.785 157.495 155.511 157.594 155.25V150.11C157.594 150.11 165.14 145.509 165.721 145.219C165.794 145.187 165.873 145.17 165.953 145.17C166.884 145.132 169.555 146.08 170.997 147.098C172.591 148.226 174.62 147.536 174.62 147.536C174.62 147.536 178.555 144.367 179.592 146.686C179.653 146.819 179.7 146.958 179.734 147.101C180.491 150.165 171.505 154.539 170.663 154.513Z" fill="#575757"/>
<path opacity="0.1" d="M157.594 151.345V150.11C157.594 150.11 165.14 145.509 165.72 145.219C165.794 145.187 165.873 145.17 165.953 145.17C166.298 145.527 166.609 145.846 166.794 146.04C167.343 146.591 162.336 152.864 157.594 151.345Z" fill="black"/>
<path d="M156.435 150.455L155.742 147.339C155.742 147.339 155.742 144.645 154.784 144.124C153.826 143.602 151.217 125.524 151.217 125.524C151.217 125.524 151.304 121.53 150.607 121.008C149.911 120.486 150.607 119.912 150.607 119.912C150.605 119.337 150.5 118.767 150.3 118.228C150.071 117.642 149.912 117.031 149.826 116.407C149.826 116.407 150.175 115.103 149.826 114.758C149.583 114.515 149.893 114.059 149.324 113.149C148.957 112.608 148.511 112.126 148.001 111.717C146.03 110.053 147.975 91.2046 148.509 86.3606C148.59 85.6388 148.639 85.23 148.639 85.23H153.283L153.864 87.3143L154.79 91.1669C154.79 91.1669 155.399 91.5699 155.399 92.0917C155.399 92.6135 159.051 103.641 159.051 103.641C159.318 104.085 159.551 104.549 159.747 105.029C159.834 105.377 160.618 105.986 160.618 105.986C160.469 106.313 160.391 106.669 160.391 107.028C160.391 107.388 160.469 107.743 160.618 108.07C161.137 109.111 162.618 113.454 162.095 115.538C161.573 117.622 160.963 117.796 160.963 117.796C160.963 117.796 160.444 119.338 161.312 119.912C162.179 120.486 161.573 121.53 161.573 121.53L162.705 131.258C162.705 131.258 162.618 135.607 163.921 137.163C165.224 138.72 165.398 142.46 165.398 142.46L164.417 142.877L164.24 142.955L164.182 142.982C164.182 142.982 166.182 145.066 166.794 145.675C167.407 146.283 161.477 153.586 156.435 150.455Z" fill="black"/>
<path opacity="0.1" d="M166.783 145.683C166.257 147.254 160.978 152.93 156.435 150.11L155.742 146.994C156.984 145.988 160.859 143.051 164.232 142.616L164.173 142.642L164.409 142.886L164.232 142.964L164.173 142.99C164.173 142.99 166.173 145.074 166.783 145.683Z" fill="black"/>
<path d="M156.435 150.455L155.742 147.339C156.984 146.333 160.859 143.396 164.232 142.961L164.173 142.987C164.173 142.987 166.173 145.072 166.786 145.68C167.398 146.289 161.477 153.586 156.435 150.455Z" fill="black"/>
<path d="M169.534 147.968C169.655 147.968 169.752 147.87 169.752 147.75C169.752 147.63 169.655 147.533 169.534 147.533C169.414 147.533 169.317 147.63 169.317 147.75C169.317 147.87 169.414 147.968 169.534 147.968Z" fill="white"/>
<path d="M168.115 147.753C168.235 147.753 168.333 147.656 168.333 147.536C168.333 147.416 168.235 147.318 168.115 147.318C167.995 147.318 167.897 147.416 167.897 147.536C167.897 147.656 167.995 147.753 168.115 147.753Z" fill="white"/>
<path d="M170.753 148.185C170.874 148.185 170.971 148.088 170.971 147.968C170.971 147.848 170.874 147.75 170.753 147.75C170.633 147.75 170.536 147.848 170.536 147.968C170.536 148.088 170.633 148.185 170.753 148.185Z" fill="white"/>
<path d="M166.609 147.536C166.729 147.536 166.826 147.438 166.826 147.318C166.826 147.198 166.729 147.101 166.609 147.101C166.488 147.101 166.391 147.198 166.391 147.318C166.391 147.438 166.488 147.536 166.609 147.536Z" fill="white"/>
<path opacity="0.1" d="M170.663 154.513C169.825 154.476 165.245 156.409 165.245 156.409C165.245 156.409 163.793 157.218 160.087 157.737C157.666 158.079 157.344 156.914 157.411 156.064C158.024 156.341 158.715 156.39 159.361 156.203C161.013 155.771 166.725 154.858 166.725 154.858C166.725 154.858 170.498 153.484 170.608 152.701L179.592 146.686C179.653 146.819 179.7 146.958 179.734 147.101C180.491 150.165 171.505 154.539 170.663 154.513Z" fill="black"/>
<path d="M166.426 86.349H164.339V153.304H166.426V86.349Z" fill="black"/>
<path d="M166.266 87.1143C166.333 86.4435 166.639 85.819 167.128 85.3539C167.616 84.8887 168.255 84.6137 168.929 84.5787C169.603 84.5436 170.268 84.7509 170.802 85.1628C171.336 85.5748 171.705 86.1642 171.842 86.8244C172.088 86.9857 172.319 87.1691 172.533 87.3723C172.644 87.4754 172.785 87.5416 172.936 87.562C173.086 87.5824 173.24 87.556 173.375 87.4863C173.51 87.4166 173.62 87.3071 173.691 87.1726C173.761 87.0381 173.789 86.8851 173.769 86.7345C173.768 86.7181 173.768 86.7016 173.769 86.6852C173.673 86.0125 173.434 85.3682 173.066 84.7962C172.699 84.2242 172.213 83.7379 171.641 83.3703C171.068 83.0027 170.424 82.7624 169.75 82.6659C169.077 82.5693 168.39 82.6187 167.737 82.8107C167.085 83.0027 166.481 83.3328 165.968 83.7785C165.454 84.2242 165.043 84.7751 164.761 85.3938C164.48 86.0125 164.335 86.6845 164.337 87.364C164.339 88.0435 164.487 88.7147 164.771 89.3319C165.046 88.4646 165.565 87.6946 166.266 87.1143Z" fill="black"/>
<path d="M167.207 150.919H163.686V155.826H167.207V150.919Z" fill="black"/>
<path d="M148.753 27.0524C148.024 27.9943 147.438 29.0373 147.011 30.1484C145.629 33.7894 146.666 36.723 146.666 36.723C146.666 36.723 134.086 33.943 135.305 32.5544C136.043 31.7109 136.652 28.467 137.018 26.0435C137.256 24.4637 137.392 23.2316 137.392 23.2316C137.392 23.2316 152.52 22.133 148.753 27.0524Z" fill="#FABDBD"/>
<path d="M152.366 157.412C152.211 158.264 151.763 159.036 151.101 159.595C150.143 160.404 141.015 160.694 139.16 160.001C137.305 159.308 131.393 159.044 129.912 158.986C128.432 158.928 127.858 157.569 127.535 156.902C127.445 156.711 127.512 156.29 127.663 155.786C128.032 154.548 128.891 152.803 129.074 152.617C129.213 152.478 129.347 151.91 129.436 151.411C129.515 150.98 129.567 150.6 129.567 150.6C133.535 153.302 138.753 148.71 138.753 148.71C138.949 148.605 139.172 148.565 139.392 148.594C140.39 148.715 141.479 150.023 141.479 150.6C141.479 151.304 144.23 152.629 144.23 152.629C145.014 153.528 148.491 155.206 148.491 155.206C148.491 155.206 150.868 155.264 151.913 156.16C152.088 156.313 152.222 156.509 152.301 156.728C152.38 156.947 152.403 157.182 152.366 157.412Z" fill="#575757"/>
<path opacity="0.1" d="M152.366 157.412C152.211 158.264 151.763 159.036 151.101 159.595C150.143 160.404 141.015 160.694 139.16 160.001C137.305 159.308 131.393 159.044 129.912 158.986C128.432 158.928 127.858 157.569 127.535 156.902C127.445 156.711 127.512 156.29 127.663 155.786C128.966 156.105 130.25 156.497 131.509 156.96C133.364 157.685 137.218 158.725 137.894 158.409C137.883 158.418 147.028 160.966 152.366 157.412Z" fill="black"/>
<path opacity="0.1" d="M149.324 113.158C148.957 112.617 148.511 112.134 148.001 111.726C146.03 110.062 147.975 91.2133 148.509 86.3693C150.787 86.2417 152.384 86.2852 152.52 86.6273C152.99 87.8013 149.945 108.92 149.324 113.158Z" fill="black"/>
<path opacity="0.1" d="M139.392 148.605V149.585C133.007 156.128 130.452 153.89 129.437 151.417C129.515 150.985 129.567 150.606 129.567 150.606C133.535 153.307 138.754 148.715 138.754 148.715C138.95 148.613 139.173 148.575 139.392 148.605Z" fill="black"/>
<path d="M152.018 88.1579C151.641 93.9788 148.703 113.897 148.703 113.897C148.703 113.897 147.052 121.191 146.703 121.452C146.355 121.712 144.184 123.191 144.184 123.191C144.184 123.191 144.097 126.58 143.4 127.539C142.704 128.499 142.443 130.928 142.443 130.928C142.443 130.928 141.313 135.789 140.965 138.222C140.617 140.654 139.401 143.953 139.401 143.953V149.252C131.372 157.476 129.396 151.826 128.931 149.275C128.864 148.922 128.818 148.566 128.792 148.208L133.314 120.767C133.314 120.767 134.269 119.463 134.095 118.77C133.921 118.077 134.443 117.205 134.443 117.205L134.429 115.642C134.429 115.642 135.488 114.254 134.429 113.471C133.369 112.688 134.429 106.783 134.429 106.783C134.429 106.783 133.227 103.397 133.848 102.435C134.469 101.472 133.848 99.9157 134.281 99.0461C134.713 98.1764 134.281 99.0461 132.716 96.7009C131.898 95.4776 131.201 93.2599 130.719 91.422C130.278 89.732 130.02 88.3637 130.02 88.3637C130.02 88.3637 151.498 85.3257 152.021 86.6244C152.087 87.1335 152.086 87.649 152.018 88.1579Z" fill="black"/>
<path opacity="0.1" d="M148.753 27.0524C148.024 27.9943 147.438 29.0373 147.011 30.1484C146.188 30.4092 145.329 30.5412 144.466 30.5397C141.371 30.5397 139.656 28.2641 138.196 25.7797C138.129 25.6667 137.079 26.1595 137.018 26.0435C137.256 24.4637 137.392 23.2316 137.392 23.2316C137.392 23.2316 152.52 22.133 148.753 27.0524Z" fill="black"/>
<path d="M152.868 21.9735C152.871 23.9306 152.19 25.8274 150.943 27.3368C149.695 28.8462 147.959 29.8736 146.035 30.2419C144.11 30.6101 142.117 30.2962 140.4 29.3542C138.682 28.4122 137.347 26.9012 136.626 25.0816C135.904 23.262 135.84 21.248 136.446 19.3867C137.052 17.5254 138.289 15.9335 139.944 14.8854C141.599 13.8374 143.568 13.3989 145.512 13.6456C147.456 13.8922 149.253 14.8086 150.593 16.2366C152.053 17.7909 152.867 19.842 152.868 21.9735Z" fill="#FABDBD"/>
<path opacity="0.1" d="M152.018 88.1579C149.179 88.6565 144.022 89.6334 143.601 90.219C143.02 91.0278 138.666 91.2597 136.054 91.6075C134.554 91.8076 132.354 91.6423 130.696 91.422C130.255 89.732 129.997 88.3637 129.997 88.3637C129.997 88.3637 151.475 85.3257 151.998 86.6244C152.072 87.1324 152.078 87.648 152.018 88.1579Z" fill="black"/>
<path d="M153.855 87.323C153.855 87.323 144.181 88.8855 143.601 89.6972C143.02 90.5089 138.666 90.7379 136.054 91.0857C133.442 91.4336 128.752 90.6799 128.403 90.448C126.371 89.0942 127.358 73.1967 128.229 71.2255C129.1 69.2543 128.81 58.2588 127.997 53.8583C127.184 49.4578 128.403 43.9586 128.403 43.9586C128.403 43.9586 129.619 40.0799 129.39 39.2682C129.161 38.4565 130.551 36.723 130.551 36.723C130.551 36.723 132.696 33.1893 133.796 32.6646C133.998 32.5679 134.176 32.4291 134.319 32.2575C134.462 32.086 134.567 31.8857 134.626 31.6703C134.832 31.0296 134.806 30.2208 134.841 29.5396C134.899 28.38 136.057 28.38 136.057 28.38C139.363 28.8989 147.13 33.7633 147.13 33.7633C146.84 34.8619 148.694 37.9898 148.694 37.9898C148.726 38.0391 148.753 38.0913 148.782 38.1464C150.813 41.97 152.291 53.6786 152.291 53.6786C152.291 53.6786 152.392 59.2705 152.375 63.3869C152.375 65.4422 152.326 67.1294 152.23 67.5729C152.061 68.3614 152.395 72.0227 152.735 75.5071C152.967 77.9161 153.205 80.2381 153.278 81.4672C153.469 84.485 153.855 87.323 153.855 87.323Z" fill="black"/>
<path opacity="0.1" d="M145.391 71.3444C145.391 71.3444 142.779 77.5972 143.479 78.522C144.178 79.4467 145.391 71.3444 145.391 71.3444Z" fill="black"/>
<path opacity="0.1" d="M148.636 74.3534C148.636 74.3534 145.682 78.9916 146.782 79.9105C147.882 80.8295 148.636 74.3534 148.636 74.3534Z" fill="black"/>
<path opacity="0.1" d="M139.392 147.507V149.069C131.364 157.293 129.387 151.643 128.923 149.092C130.383 150.345 133.732 151.904 139.392 147.507Z" fill="black"/>
<path d="M139.392 147.681V149.243C131.364 157.467 129.387 151.817 128.923 149.266C130.383 150.519 133.732 152.078 139.392 147.681Z" fill="black"/>
<path d="M138.437 152.125C138.557 152.125 138.655 152.027 138.655 151.907C138.655 151.787 138.557 151.69 138.437 151.69C138.317 151.69 138.219 151.787 138.219 151.907C138.219 152.027 138.317 152.125 138.437 152.125Z" fill="white"/>
<path d="M141.998 154.307C142.119 154.307 142.216 154.21 142.216 154.09C142.216 153.97 142.119 153.873 141.998 153.873C141.878 153.873 141.781 153.97 141.781 154.09C141.781 154.21 141.878 154.307 141.998 154.307Z" fill="white"/>
<path d="M140.634 153.412C140.755 153.412 140.852 153.314 140.852 153.194C140.852 153.074 140.755 152.977 140.634 152.977C140.514 152.977 140.417 153.074 140.417 153.194C140.417 153.314 140.514 153.412 140.634 153.412Z" fill="white"/>
<path d="M143.101 155.064C143.222 155.064 143.319 154.967 143.319 154.847C143.319 154.727 143.222 154.629 143.101 154.629C142.981 154.629 142.884 154.727 142.884 154.847C142.884 154.967 142.981 155.064 143.101 155.064Z" fill="white"/>
<path d="M139.61 152.762C139.73 152.762 139.827 152.665 139.827 152.545C139.827 152.425 139.73 152.327 139.61 152.327C139.489 152.327 139.392 152.425 139.392 152.545C139.392 152.665 139.489 152.762 139.61 152.762Z" fill="white"/>
<path opacity="0.1" d="M141.044 96.469C141.044 96.469 138.948 101.716 136.463 101.913C133.979 102.11 141.044 96.469 141.044 96.469Z" fill="black"/>
<path opacity="0.1" d="M141.392 104.461C141.392 104.461 138.086 110.076 137.102 110.134C136.118 110.192 141.392 104.461 141.392 104.461Z" fill="black"/>
<path opacity="0.1" d="M143.101 123.333C143.101 123.333 139.003 125.475 139.938 125.652C140.872 125.829 143.101 123.333 143.101 123.333Z" fill="black"/>
<path opacity="0.1" d="M134.957 123.333C134.957 123.333 139.076 121.654 139.798 121.654C140.521 121.654 134.957 123.333 134.957 123.333Z" fill="black"/>
<path opacity="0.1" d="M157.405 116.503C157.405 116.503 160.232 115.807 160.348 116.503C160.464 117.199 157.405 116.503 157.405 116.503Z" fill="black"/>
<path opacity="0.1" d="M160.116 119.924C160.116 119.924 157.623 119.976 157.971 120.793C158.319 121.611 160.116 119.924 160.116 119.924Z" fill="black"/>
<path opacity="0.1" d="M148.782 38.5C146.639 37.6623 142.904 36.0476 141.218 34.4039C139.531 32.7603 136.437 32.2182 134.626 32.021C134.832 31.3804 134.806 30.5716 134.841 29.8904C134.899 28.7308 136.057 28.7308 136.057 28.7308C139.363 29.2497 147.13 34.114 147.13 34.114C146.84 35.2127 148.694 38.3406 148.694 38.3406C148.726 38.3928 148.753 38.445 148.782 38.5Z" fill="black"/>
<path d="M148.782 38.1522C146.639 37.3144 142.904 35.6997 141.218 34.0589C139.531 32.4182 136.437 31.8703 134.626 31.6732C134.832 31.0325 134.806 30.2237 134.841 29.5425C134.899 28.3829 136.057 28.3829 136.057 28.3829C139.363 28.9018 147.13 33.7662 147.13 33.7662C146.84 34.8648 148.694 37.9927 148.694 37.9927C148.726 38.0449 148.753 38.0971 148.782 38.1522Z" fill="black"/>
<path opacity="0.1" d="M152.735 75.5129C149.292 73.2808 144.466 69.4949 144.466 69.2601C144.466 68.9702 142.492 66.8279 142.492 66.8279L138.608 59.7807L137.392 56.8818L140.875 53.235L148.471 58.0965L150.503 61.8012C151.177 62.2789 151.807 62.8154 152.386 63.4043C152.386 65.4596 152.337 67.1468 152.241 67.5903C152.061 68.3672 152.395 72.0285 152.735 75.5129Z" fill="black"/>
<path d="M137.566 56.1745L138.608 59.7807L142.672 66.1322C142.672 66.1322 144.643 68.2744 144.643 68.5643C144.643 68.8542 151.899 74.4693 154.961 76.0318C158.023 77.5943 161.927 78.8785 162.217 80.0033C162.507 81.1281 164.249 89.5232 169.183 86.8012C174.117 84.0791 167.793 77.9422 167.793 77.9422L163.729 74.3534C163.729 74.3534 155.06 67.5787 154.322 65.3234C153.585 63.068 150.686 61.0968 150.686 61.0968L148.654 57.3891L141.061 52.5277L137.566 56.1745Z" fill="#FABDBD"/>
<path opacity="0.1" d="M136.115 37.068C136.115 37.068 129.045 40.3118 131.248 45.4747C133.451 50.6377 138.26 60.1402 138.26 60.1402C138.26 60.1402 137.682 56.821 138.957 56.5311C140.231 56.2412 148.782 57.6645 148.782 57.6645C148.782 57.6645 146.433 53.809 146.84 51.6088C147.246 49.4085 143.769 35.1576 136.115 37.068Z" fill="black"/>
<path opacity="0.1" d="M136.812 36.5491C136.812 36.5491 129.741 39.79 131.941 44.9356C134.141 50.0811 138.957 59.6068 138.957 59.6068C138.957 59.6068 138.376 56.2905 139.653 56.0006C140.93 55.7107 148.985 57.2152 148.985 57.2152C148.985 57.2152 147.13 53.2785 147.534 51.0783C147.937 48.878 144.471 34.6358 136.812 36.5491Z" fill="black"/>
<path d="M136.463 36.7201C136.463 36.7201 129.393 39.964 131.596 45.1269C133.799 50.2898 138.608 59.7923 138.608 59.7923C138.608 59.7923 138.028 56.476 139.305 56.1861C140.582 55.8962 148.636 57.4007 148.636 57.4007C148.636 57.4007 146.782 53.4641 147.185 51.2638C147.589 49.0636 144.117 34.8098 136.463 36.7201Z" fill="black"/>
<path opacity="0.1" d="M150.593 16.2366C149.609 16.5613 148.561 16.7497 147.69 16.2598C147.089 15.9264 146.637 15.3003 145.949 15.1698C145.331 15.051 144.698 15.4075 144.3 15.8946C143.93 16.4072 143.637 16.9706 143.429 17.5672C142.99 18.6096 142.454 19.6083 141.827 20.5502C141.438 21.1299 140.922 21.7445 140.225 21.7735C139.27 21.817 138.626 20.7647 137.703 20.5096C135.448 19.8805 136.751 22.362 137.082 23.2983C137.409 24.2225 137.524 25.2082 137.418 26.1827C137.344 26.1999 137.268 26.2115 137.192 26.2175C136.164 24.4342 135.827 22.3363 136.244 20.3212C136.661 18.3061 137.803 16.5137 139.455 15.2836C141.106 14.0535 143.152 13.4711 145.205 13.6468C147.258 13.8224 149.175 14.7439 150.593 16.2366Z" fill="black"/>
<path d="M137.546 20.3299C138.466 20.585 139.111 21.6373 140.065 21.5967C140.765 21.5648 141.282 20.9531 141.668 20.3705C142.294 19.4317 142.831 18.4359 143.27 17.3962C143.478 16.7996 143.771 16.2361 144.141 15.7235C144.541 15.2365 145.171 14.88 145.789 14.9988C146.463 15.1293 146.915 15.7554 147.531 16.0888C148.628 16.7005 149.992 16.2569 151.165 15.7989C151.745 15.5786 152.381 15.2597 152.479 14.6626C152.549 14.2422 152.308 13.819 152.363 13.3957C152.418 12.9725 152.732 12.6768 152.944 12.329C153.156 11.9811 153.278 11.4796 152.979 11.1984C152.761 10.9955 152.421 11.01 152.143 10.9085C151.449 10.6389 151.272 9.70837 150.654 9.29093C149.986 8.8416 149.095 9.14309 148.288 9.18077C147.127 9.23295 146.045 8.69956 144.968 8.27342C143.891 7.84728 142.663 7.51971 141.598 7.96614C140.962 8.23574 140.469 8.74304 139.929 9.17208C138.873 10.0024 137.613 10.5331 136.281 10.7085C135.625 10.7954 134.908 10.8099 134.391 11.2187C133.741 11.7347 133.642 12.6855 133.767 13.5059C133.892 14.3263 134.182 15.1322 134.115 15.9555C134.011 17.2629 133.033 18.3383 132.708 19.608C132.635 19.8106 132.611 20.027 132.635 20.2406C132.66 20.4542 132.733 20.6592 132.85 20.8401C133.043 21.0323 133.265 21.1927 133.509 21.3155C133.82 21.5182 134.084 21.7869 134.28 22.1025C134.476 22.4181 134.6 22.7729 134.644 23.1418C134.687 23.5157 134.644 23.8955 134.702 24.2665C134.818 24.8341 135.151 25.3338 135.631 25.6588C136.111 25.9839 136.7 26.1084 137.27 26.0059C137.374 25.0314 137.259 24.046 136.934 23.1215C136.591 22.1823 135.291 19.7153 137.546 20.3299Z" fill="#7C5C5C"/>
<g opacity="0.1">
<path d="M151.083 9.71414C151.091 9.72849 151.1 9.74183 151.111 9.75387L151.083 9.71414Z" fill="black"/>
<path d="M152.909 12.2797C153.129 11.9347 153.246 11.4274 152.944 11.1491C152.894 11.1039 152.837 11.0667 152.775 11.0389C152.779 11.2949 152.704 11.5459 152.561 11.7579C152.34 12.1028 152.029 12.4188 151.98 12.8246C151.931 13.2305 152.163 13.6682 152.096 14.0886C151.998 14.6886 151.347 15.0046 150.781 15.2249C149.62 15.68 148.245 16.1265 147.145 15.5148C146.547 15.1785 146.094 14.5553 145.42 14.4248C144.802 14.306 144.17 14.6625 143.772 15.1496C143.402 15.6618 143.108 16.2253 142.901 16.8222C142.461 17.864 141.925 18.8626 141.299 19.8052C140.91 20.3849 140.396 20.9995 139.697 21.0285C138.742 21.0691 138.097 20.0197 137.174 19.7646C134.919 19.1355 136.222 21.617 136.553 22.5533C136.881 23.4823 136.996 24.4729 136.89 25.4522C136.514 25.5212 136.126 25.4912 135.764 25.3651C135.403 25.2391 135.081 25.0213 134.829 24.7333C135.039 25.1745 135.388 25.5349 135.823 25.759C136.257 25.9831 136.754 26.0587 137.235 25.974C137.342 24.9997 137.228 24.0139 136.902 23.0896C136.571 22.1532 135.268 19.6718 137.523 20.298C138.446 20.556 139.09 21.6054 140.045 21.5648C140.742 21.5358 141.258 20.9212 141.644 20.3414C142.271 19.3984 142.809 18.3987 143.249 17.3556C143.457 16.759 143.751 16.1955 144.12 15.6829C144.307 15.4282 144.558 15.2273 144.847 15.1005C145.137 14.9738 145.455 14.9257 145.769 14.9611C146.442 15.0916 146.895 15.7148 147.493 16.0482C148.593 16.6628 149.957 16.2163 151.13 15.7583C151.71 15.538 152.346 15.222 152.442 14.622C152.511 14.2016 152.27 13.7784 152.328 13.358C152.386 12.9377 152.688 12.6246 152.909 12.2797Z" fill="black"/>
<path d="M133.128 20.7357C132.969 20.6313 132.795 20.5415 132.644 20.4255C132.676 20.5549 132.734 20.6762 132.815 20.7821C133.009 20.9742 133.233 21.1346 133.477 21.2575C133.682 21.3916 133.866 21.5558 134.022 21.7445C133.82 21.3347 133.511 20.9864 133.128 20.7357Z" fill="black"/>
</g>
<path opacity="0.1" d="M153.565 20.4748C153.565 20.4748 151.199 18.8166 149.792 20.6052H148.944C148.097 18.1731 143.902 19.3008 143.902 19.3008L138.185 20.2342L138.292 20.6052L143.902 20.1472C143.902 20.1472 144.033 22.4286 144.794 23.1679C145.554 23.9071 147.206 23.4925 147.206 23.4925C148.204 23.365 148.683 21.7996 148.86 21.0285L149.678 21.0749C149.53 21.8605 149.432 23.394 150.77 23.9274C152.598 24.6434 153.179 23.0142 153.179 23.0142C153.179 23.0142 153.783 20.9096 153.565 20.4748Z" fill="black"/>
<path d="M153.565 20.2951C153.565 20.2951 151.199 18.6369 149.792 20.4255H148.944C148.097 17.9934 143.902 19.121 143.902 19.121L138.185 20.0574L138.292 20.4255L143.902 19.9704C143.902 19.9704 144.033 22.2489 144.794 22.9881C145.554 23.7274 147.206 23.3128 147.206 23.3128C148.204 23.1853 148.683 21.6199 148.86 20.8488L149.678 20.8952C149.53 21.6807 149.432 23.2143 150.77 23.7476C152.595 24.4637 153.161 22.8345 153.161 22.8345C153.161 22.8345 153.783 20.7357 153.565 20.2951Z" fill="#575757"/>
<path d="M179.841 147.037C179.81 146.893 179.762 146.753 179.699 146.62C178.976 145.011 176.852 146.04 175.618 146.834L175.455 146.936C175.003 147.225 174.704 147.475 174.704 147.475H174.663C174.373 147.565 172.536 148.055 171.076 147.023C169.684 146.113 168.134 145.47 166.507 145.127V86.8592C167.285 87.1143 168.193 87.0389 169.247 86.4562C169.854 86.1463 170.364 85.6761 170.721 85.0966C170.779 85.0039 170.829 84.907 170.872 84.8068L170.907 84.8358C171.435 85.245 171.799 85.8288 171.935 86.4823C172.183 86.6429 172.415 86.8263 172.628 87.0302C172.71 87.1098 172.809 87.1695 172.917 87.2044C173.025 87.2394 173.141 87.2486 173.253 87.2315C173.366 87.2143 173.473 87.1712 173.566 87.1056C173.659 87.04 173.736 86.9536 173.789 86.8534C173.869 86.7138 173.9 86.5515 173.876 86.3925C173.878 86.3761 173.878 86.3596 173.876 86.3432C173.754 85.5445 173.429 84.7903 172.934 84.1517C172.438 83.5131 171.787 83.0113 171.044 82.6935C170.504 80.1338 167.868 77.5654 167.868 77.5654L163.805 73.962C163.805 73.962 155.115 67.1584 154.378 64.8885C154.032 63.8304 153.217 62.839 152.444 62.0795C152.444 58.0704 152.363 53.1974 152.363 53.1974C152.363 53.1974 150.871 41.4279 148.825 37.5869C148.796 37.5318 148.77 37.4796 148.738 37.4303C148.738 37.4303 147.287 34.9692 147.15 33.6357C147.15 33.598 147.15 33.5661 147.171 33.5313L147.142 33.5168C147.137 33.4049 147.147 33.2929 147.171 33.1835L146.378 32.6994H146.358C146.417 31.8569 146.574 31.0242 146.825 30.2179C146.843 30.157 146.866 30.0933 146.886 30.0266C146.936 29.873 146.994 29.7193 147.052 29.5599C147.075 29.4932 147.104 29.4265 147.13 29.357C147.22 29.3309 147.31 29.299 147.397 29.2642C148.615 28.8144 149.712 28.0903 150.604 27.1481C151.496 26.2059 152.159 25.0711 152.54 23.8317C152.564 23.7592 152.587 23.6838 152.607 23.6114C152.656 23.4374 152.7 23.2606 152.738 23.0838C152.758 23.0606 152.781 23.0432 152.802 23.0171C152.985 22.8361 153.13 22.619 153.225 22.3794C153.224 22.3746 153.224 22.3696 153.225 22.3649C153.257 22.2489 153.487 21.4314 153.6 20.7444C153.6 20.7444 153.6 20.7299 153.6 20.7241C153.64 20.5052 153.658 20.2827 153.652 20.0602C153.67 19.9263 153.655 19.79 153.608 19.6631C153.302 19.4592 152.973 19.2928 152.627 19.1674C152.307 17.9591 151.72 16.8378 150.909 15.8859C150.899 15.8719 150.887 15.8593 150.874 15.8482C150.799 15.7525 150.715 15.6626 150.63 15.5728C150.546 15.4829 150.517 15.4539 150.456 15.396C150.706 15.3119 150.95 15.2249 151.185 15.1322C151.67 14.9466 152.212 14.6857 152.424 14.2393C152.425 14.2316 152.425 14.2238 152.424 14.2161C152.457 14.1442 152.479 14.0681 152.491 13.99C152.506 13.7035 152.474 13.4165 152.395 13.1406C152.394 13.1165 152.394 13.0923 152.395 13.0681C152.378 12.9538 152.378 12.8375 152.395 12.7232C152.447 12.3144 152.764 11.9985 152.976 11.6535C153.023 11.5802 153.063 11.5025 153.095 11.4216C153.156 11.3002 153.188 11.1662 153.188 11.0302C153.188 10.8943 153.156 10.7603 153.095 10.6389C153.067 10.5803 153.028 10.5273 152.981 10.4823C152.931 10.4371 152.874 10.3991 152.813 10.3693V10.407C152.613 10.32 152.375 10.3055 152.166 10.2243C151.472 9.95765 151.295 9.01841 150.674 8.60097C150.006 8.14875 149.112 8.45313 148.306 8.49081C147.145 8.54299 146.053 8.0096 144.979 7.58056C143.905 7.15153 142.657 6.82106 141.601 7.27039C140.962 7.53998 140.469 8.05308 139.929 8.48212C138.871 9.3148 137.607 9.84751 136.272 10.0243C135.613 10.1113 134.896 10.1258 134.377 10.5403C133.811 10.9897 133.662 11.7781 133.721 12.5145C133.721 12.6246 133.738 12.729 133.752 12.8333C133.877 13.6566 134.17 14.4654 134.104 15.2974C134.104 15.3409 134.104 15.3873 134.086 15.4307C134.037 15.7816 133.939 16.1239 133.796 16.4482C133.451 17.2889 132.925 18.0803 132.684 18.9674C132.61 19.2283 132.594 19.5026 132.638 19.7704C132.637 19.7839 132.637 19.7974 132.638 19.8109C132.648 19.8474 132.661 19.8832 132.676 19.9182L132.69 19.9588C132.698 19.9786 132.706 19.998 132.716 20.0168C132.746 20.0873 132.785 20.1536 132.832 20.2139C133.026 20.4068 133.249 20.5673 133.494 20.6893C133.806 20.8941 134.069 21.1644 134.266 21.4813C134.462 21.7983 134.587 22.1542 134.632 22.5243C134.673 22.8983 134.632 23.2809 134.687 23.652C134.711 23.8157 134.758 23.975 134.829 24.1245C135.005 24.4992 135.279 24.8195 135.623 25.0512C135.966 25.2829 136.366 25.4174 136.78 25.4406C136.81 25.4435 136.84 25.4435 136.87 25.4406C136.919 25.4435 136.968 25.4435 137.018 25.4406C136.997 25.5623 136.98 25.687 136.96 25.8145C136.96 25.8783 136.939 25.945 136.928 26.0145C136.928 26.029 136.928 26.0464 136.928 26.0609C136.832 26.6581 136.725 27.2872 136.603 27.9075C136.414 27.8611 136.228 27.8206 136.063 27.7916C136.063 27.7916 134.902 27.7916 134.841 28.9511C134.806 29.6468 134.841 30.4469 134.626 31.0934C134.567 31.3093 134.462 31.5102 134.319 31.6826C134.176 31.855 133.997 31.9951 133.796 32.0935C132.693 32.6124 130.545 36.1519 130.545 36.1519C130.545 36.1519 129.152 37.8913 129.384 38.7116C129.388 38.7279 129.388 38.7447 129.384 38.7609C129.412 38.9532 129.412 39.1484 129.384 39.3407C129.242 40.7061 128.389 43.431 128.389 43.431C127.931 45.674 127.703 47.9574 127.707 50.2463C127.712 51.2948 127.804 52.341 127.982 53.3742C128.47 56.0151 128.766 61.0156 128.74 65.0364C128.74 65.2596 128.74 65.4741 128.74 65.6915C128.702 68.115 128.54 70.092 128.217 70.8255C127.718 71.9589 127.178 77.6871 127.193 82.6239C127.193 86.3113 127.521 89.558 128.392 90.1378C129.065 90.3499 129.758 90.4908 130.461 90.5581H130.551C130.58 90.6712 130.606 90.7814 130.635 90.8915C130.664 91.0017 130.673 91.0307 130.69 91.1031C130.708 91.1756 130.748 91.3205 130.777 91.4336C131.256 93.2077 131.921 95.2485 132.69 96.4081C134.104 98.5301 134.594 98.0315 134.359 98.5504C134.333 98.6054 134.301 98.6779 134.258 98.7649C134.138 99.0388 134.08 99.3358 134.089 99.6345C134.089 100.145 134.141 100.719 134.089 101.243C134.071 101.565 133.977 101.878 133.813 102.157C133.681 102.408 133.621 102.691 133.639 102.974C133.639 104.339 134.408 106.505 134.408 106.505L134.377 106.702C134.289 107.227 134.057 108.731 133.97 110.152C133.97 110.166 133.97 110.186 133.97 110.201C133.892 111.575 133.953 112.882 134.411 113.227C134.587 113.349 134.723 113.518 134.804 113.715C134.885 113.912 134.907 114.128 134.867 114.338C134.797 114.723 134.641 115.087 134.411 115.404V115.59L134.426 116.976L134.406 117.008C134.201 117.374 134.077 117.78 134.043 118.199C134.037 118.314 134.048 118.429 134.075 118.541C134.101 118.664 134.101 118.792 134.075 118.915C133.959 119.622 133.285 120.541 133.285 120.541L132.368 126.127L128.798 148.136C128.797 148.144 128.797 148.153 128.798 148.162C128.824 148.513 128.87 148.862 128.934 149.208C128.933 149.229 128.933 149.249 128.934 149.269C129.05 149.906 129.233 150.529 129.48 151.127C129.48 151.127 129.48 151.153 129.48 151.165C129.48 151.229 129.457 151.298 129.445 151.368C129.352 151.869 129.222 152.441 129.079 152.58C128.937 152.719 128.035 154.519 127.666 155.768C127.625 155.899 127.593 156.026 127.567 156.142C127.569 156.149 127.569 156.156 127.567 156.163C127.542 156.268 127.524 156.374 127.512 156.482C127.507 156.561 127.507 156.64 127.512 156.719C127.514 156.779 127.528 156.838 127.553 156.893C127.872 157.56 128.455 158.922 129.936 158.986C131.416 159.05 137.34 159.308 139.2 160.004C139.402 160.075 139.61 160.129 139.822 160.163L140.022 160.195H140.048L140.269 160.227C140.367 160.227 140.469 160.253 140.576 160.262C140.753 160.279 140.942 160.299 141.157 160.311C141.424 160.331 141.711 160.349 142.01 160.36H142.425C143.679 160.398 145.107 160.36 146.442 160.311C147.609 160.264 148.772 160.15 149.925 159.969C150.366 159.928 150.793 159.796 151.179 159.58C151.842 159.018 152.289 158.244 152.444 157.389C152.484 157.156 152.464 156.916 152.384 156.694C152.305 156.471 152.17 156.272 151.992 156.116C151.451 155.721 150.825 155.458 150.163 155.351C149.636 155.243 149.101 155.178 148.564 155.157C148.564 155.157 145.081 153.473 144.294 152.571C144.294 152.571 141.537 151.249 141.537 150.542C141.537 149.962 140.449 148.649 139.447 148.53V143.869L139.473 143.799C139.473 143.773 139.494 143.747 139.502 143.718C139.511 143.689 139.56 143.553 139.601 143.428C139.603 143.413 139.603 143.397 139.601 143.382C139.624 143.318 139.647 143.245 139.676 143.167C139.705 143.089 139.726 143.016 139.752 142.935C139.778 142.854 139.807 142.773 139.836 142.683C139.973 142.263 140.126 141.764 140.283 141.233C140.318 141.109 140.356 140.981 140.39 140.851C140.39 140.825 140.405 140.796 140.414 140.764C140.661 139.89 140.855 139.003 140.994 138.106C141.194 136.694 141.656 134.465 142.013 132.835C142.054 132.661 142.086 132.499 142.12 132.34C142.141 132.261 142.155 132.183 142.173 132.105L142.199 131.995C142.219 131.899 142.239 131.809 142.257 131.722C142.367 131.229 142.44 130.925 142.44 130.925C142.439 130.92 142.439 130.915 142.44 130.911C142.457 130.832 142.469 130.789 142.469 130.789C142.469 130.789 142.53 130.209 142.681 129.479C142.681 129.423 142.704 129.368 142.718 129.31C142.833 128.631 143.074 127.978 143.426 127.386C143.632 127.045 143.776 126.671 143.85 126.281C143.85 126.243 143.85 126.203 143.873 126.165C143.872 126.145 143.872 126.124 143.873 126.104C144.053 125.138 144.16 124.159 144.193 123.176C144.193 123.078 144.193 123.023 144.193 123.023C144.193 123.023 146.372 121.541 146.721 121.283C147.069 121.025 148.445 114.906 148.689 113.851L148.724 113.7C148.724 113.7 148.782 113.306 148.88 112.61C148.88 112.535 148.903 112.459 148.915 112.378C149.073 112.554 149.217 112.743 149.345 112.943V112.958C149.925 113.868 149.606 114.329 149.85 114.572C150.166 114.891 149.905 116.022 149.85 116.202C149.85 116.202 149.85 116.219 149.85 116.225C149.935 116.848 150.093 117.459 150.323 118.045C150.53 118.582 150.642 119.151 150.654 119.727L150.601 119.776C150.465 119.907 150.376 120.079 150.349 120.266C150.344 120.376 150.368 120.486 150.419 120.585C150.47 120.683 150.546 120.766 150.639 120.825C151.339 121.347 151.252 125.362 151.252 125.362C151.252 125.362 151.292 125.652 151.368 126.148C151.417 126.49 151.481 126.93 151.562 127.449C152.282 132.238 154.067 143.616 154.825 144.028C155.582 144.44 155.739 146.214 155.774 146.927C155.774 147.063 155.774 147.162 155.774 147.217V147.272L156.467 150.391C156.812 150.605 157.182 150.777 157.567 150.904L157.628 150.924V155.189C157.529 155.452 157.468 155.728 157.445 156.009C157.445 156.009 157.445 156.035 157.445 156.053C157.393 156.896 157.736 158.024 160.127 157.688L160.473 157.638C161.004 157.557 161.483 157.47 161.924 157.383C164.327 156.902 165.305 156.351 165.305 156.351C165.305 156.351 165.886 156.113 166.646 155.8L166.702 155.78H167.282V155.554C167.982 155.279 168.756 154.989 169.41 154.774C169.581 154.716 169.749 154.667 169.897 154.623C170.171 154.527 170.458 154.469 170.748 154.449C170.859 154.445 170.968 154.423 171.073 154.386C171.113 154.386 171.16 154.354 171.215 154.339C173.267 153.664 180.526 149.817 179.841 147.037ZM159.814 104.783C159.619 104.301 159.387 103.835 159.12 103.389C159.12 103.389 155.46 92.3062 155.46 91.7931C155.46 91.28 154.851 90.8625 154.851 90.8625L153.922 86.9925C153.922 86.9925 153.518 84.1429 153.341 81.1194C153.269 79.8816 153.031 77.548 152.799 75.1274C152.799 74.9911 152.775 74.8549 152.758 74.7215C152.741 74.5882 152.732 74.4143 152.714 74.2606C153.464 74.7637 154.239 75.2281 155.036 75.6521C158.113 77.2204 162.002 78.5075 162.293 79.641C162.467 80.3106 163.149 83.5428 164.702 85.4996C164.667 85.604 164.632 85.7083 164.603 85.8185C164.583 85.8822 164.568 85.9489 164.551 86.0156H164.435V137.72C164.409 137.674 164.385 137.627 164.356 137.581C164.257 137.398 164.141 137.225 164.008 137.065C162.699 135.494 162.786 131.131 162.786 131.131L161.657 121.391V121.359C161.681 121.319 161.702 121.277 161.721 121.234C161.851 120.944 162.072 120.196 161.393 119.747C160.714 119.298 160.882 118.24 160.992 117.811C161.006 117.746 161.023 117.682 161.045 117.619C161.045 117.619 161.465 117.5 161.915 116.254C161.915 116.236 161.915 116.219 161.933 116.199C162.017 115.958 162.101 115.677 162.185 115.352C162.705 113.259 161.225 108.894 160.699 107.847C160.465 107.357 160.405 106.801 160.531 106.273C160.554 106.163 160.583 106.064 160.606 105.983C160.659 105.838 160.699 105.754 160.699 105.754C160.699 105.754 159.892 105.131 159.802 104.783H159.814ZM164.246 142.918L164.307 142.892H164.336L164.377 142.874H164.414V143.121L164.336 143.037L164.281 142.982L164.246 142.918Z" fill="url(#paint0_linear_178_396)"/>
<path d="M170.663 154.513C169.825 154.476 165.245 156.409 165.245 156.409C165.245 156.409 163.793 157.218 160.087 157.737C157.666 158.079 157.344 156.914 157.411 156.064C157.433 155.785 157.495 155.511 157.594 155.25V150.11C157.594 150.11 165.14 145.509 165.721 145.219C165.794 145.187 165.873 145.17 165.953 145.17C166.884 145.132 169.555 146.08 170.997 147.098C172.591 148.226 174.62 147.536 174.62 147.536C174.62 147.536 178.555 144.367 179.592 146.686C179.653 146.819 179.7 146.958 179.734 147.101C180.491 150.165 171.505 154.539 170.663 154.513Z" fill="#575757"/>
<path opacity="0.1" d="M157.594 151.345V150.11C157.594 150.11 165.14 145.509 165.72 145.219C165.794 145.187 165.873 145.17 165.953 145.17C166.298 145.527 166.609 145.846 166.794 146.04C167.343 146.591 162.336 152.864 157.594 151.345Z" fill="black"/>
<path d="M156.435 150.455L155.742 147.339C155.742 147.339 155.742 144.645 154.784 144.124C153.826 143.602 151.217 125.524 151.217 125.524C151.217 125.524 151.304 121.53 150.607 121.008C149.911 120.486 150.607 119.912 150.607 119.912C150.605 119.337 150.5 118.767 150.3 118.228C150.071 117.642 149.912 117.031 149.826 116.407C149.826 116.407 150.175 115.103 149.826 114.758C149.583 114.515 149.893 114.059 149.324 113.149C148.957 112.608 148.511 112.126 148.001 111.717C146.03 110.053 147.975 91.2046 148.509 86.3606C148.59 85.6388 148.639 85.23 148.639 85.23H153.283L153.864 87.3143L154.79 91.1669C154.79 91.1669 155.399 91.5699 155.399 92.0917C155.399 92.6135 159.051 103.641 159.051 103.641C159.318 104.085 159.551 104.549 159.747 105.029C159.834 105.377 160.618 105.986 160.618 105.986C160.469 106.313 160.391 106.669 160.391 107.028C160.391 107.388 160.469 107.743 160.618 108.07C161.137 109.111 162.618 113.454 162.095 115.538C161.573 117.622 160.963 117.796 160.963 117.796C160.963 117.796 160.444 119.338 161.312 119.912C162.179 120.486 161.573 121.53 161.573 121.53L162.705 131.258C162.705 131.258 162.618 135.607 163.921 137.163C165.224 138.72 165.398 142.46 165.398 142.46L164.417 142.877L164.24 142.955L164.182 142.982C164.182 142.982 166.182 145.066 166.794 145.675C167.407 146.283 161.477 153.586 156.435 150.455Z" fill="black"/>
<path opacity="0.1" d="M166.783 145.683C166.257 147.254 160.978 152.93 156.435 150.11L155.742 146.994C156.984 145.988 160.859 143.051 164.232 142.616L164.173 142.642L164.409 142.886L164.232 142.964L164.173 142.99C164.173 142.99 166.173 145.074 166.783 145.683Z" fill="black"/>
<path d="M156.435 150.455L155.742 147.339C156.984 146.333 160.859 143.396 164.232 142.961L164.173 142.987C164.173 142.987 166.173 145.072 166.786 145.68C167.398 146.289 161.477 153.586 156.435 150.455Z" fill="black"/>
<path d="M169.534 147.968C169.655 147.968 169.752 147.87 169.752 147.75C169.752 147.63 169.655 147.533 169.534 147.533C169.414 147.533 169.317 147.63 169.317 147.75C169.317 147.87 169.414 147.968 169.534 147.968Z" fill="white"/>
<path d="M168.115 147.753C168.235 147.753 168.333 147.656 168.333 147.536C168.333 147.416 168.235 147.318 168.115 147.318C167.995 147.318 167.897 147.416 167.897 147.536C167.897 147.656 167.995 147.753 168.115 147.753Z" fill="white"/>
<path d="M170.753 148.185C170.874 148.185 170.971 148.088 170.971 147.968C170.971 147.848 170.874 147.75 170.753 147.75C170.633 147.75 170.536 147.848 170.536 147.968C170.536 148.088 170.633 148.185 170.753 148.185Z" fill="white"/>
<path d="M166.609 147.536C166.729 147.536 166.826 147.438 166.826 147.318C166.826 147.198 166.729 147.101 166.609 147.101C166.488 147.101 166.391 147.198 166.391 147.318C166.391 147.438 166.488 147.536 166.609 147.536Z" fill="white"/>
<path opacity="0.1" d="M170.663 154.513C169.825 154.476 165.245 156.409 165.245 156.409C165.245 156.409 163.793 157.218 160.087 157.737C157.666 158.079 157.344 156.914 157.411 156.064C158.024 156.341 158.715 156.39 159.361 156.203C161.013 155.771 166.725 154.858 166.725 154.858C166.725 154.858 170.498 153.484 170.608 152.701L179.592 146.686C179.653 146.819 179.7 146.958 179.734 147.101C180.491 150.165 171.505 154.539 170.663 154.513Z" fill="black"/>
<path d="M166.426 86.349H164.339V153.304H166.426V86.349Z" fill="black"/>
<path d="M166.266 87.1143C166.333 86.4435 166.639 85.819 167.128 85.3539C167.616 84.8887 168.255 84.6137 168.929 84.5787C169.603 84.5436 170.268 84.7509 170.802 85.1628C171.336 85.5748 171.705 86.1642 171.842 86.8244C172.088 86.9857 172.319 87.1691 172.533 87.3723C172.644 87.4754 172.785 87.5416 172.936 87.562C173.086 87.5824 173.24 87.556 173.375 87.4863C173.51 87.4166 173.62 87.3071 173.691 87.1726C173.761 87.0381 173.789 86.8851 173.769 86.7345C173.768 86.7181 173.768 86.7016 173.769 86.6852C173.673 86.0125 173.434 85.3682 173.066 84.7962C172.699 84.2242 172.213 83.7379 171.641 83.3703C171.068 83.0027 170.424 82.7624 169.75 82.6659C169.077 82.5693 168.39 82.6187 167.737 82.8107C167.085 83.0027 166.481 83.3328 165.968 83.7785C165.454 84.2242 165.043 84.7751 164.761 85.3938C164.48 86.0125 164.335 86.6845 164.337 87.364C164.339 88.0435 164.487 88.7147 164.771 89.3319C165.046 88.4646 165.565 87.6946 166.266 87.1143Z" fill="black"/>
<path d="M167.207 150.919H163.686V155.826H167.207V150.919Z" fill="black"/>
<path d="M148.753 27.0524C148.024 27.9943 147.438 29.0373 147.011 30.1484C145.629 33.7894 146.666 36.723 146.666 36.723C146.666 36.723 134.086 33.943 135.305 32.5544C136.043 31.7109 136.652 28.467 137.018 26.0435C137.256 24.4637 137.392 23.2316 137.392 23.2316C137.392 23.2316 152.52 22.133 148.753 27.0524Z" fill="#FABDBD"/>
<path d="M152.366 157.412C152.211 158.264 151.763 159.036 151.101 159.595C150.143 160.404 141.015 160.694 139.16 160.001C137.305 159.308 131.393 159.044 129.912 158.986C128.432 158.928 127.858 157.569 127.535 156.902C127.445 156.711 127.512 156.29 127.663 155.786C128.032 154.548 128.891 152.803 129.074 152.617C129.213 152.478 129.347 151.91 129.436 151.411C129.515 150.98 129.567 150.6 129.567 150.6C133.535 153.302 138.753 148.71 138.753 148.71C138.949 148.605 139.172 148.565 139.392 148.594C140.39 148.715 141.479 150.023 141.479 150.6C141.479 151.304 144.23 152.629 144.23 152.629C145.014 153.528 148.491 155.206 148.491 155.206C148.491 155.206 150.868 155.264 151.913 156.16C152.088 156.313 152.222 156.509 152.301 156.728C152.38 156.947 152.403 157.182 152.366 157.412Z" fill="#575757"/>
<path opacity="0.1" d="M152.366 157.412C152.211 158.264 151.763 159.036 151.101 159.595C150.143 160.404 141.015 160.694 139.16 160.001C137.305 159.308 131.393 159.044 129.912 158.986C128.432 158.928 127.858 157.569 127.535 156.902C127.445 156.711 127.512 156.29 127.663 155.786C128.966 156.105 130.25 156.497 131.509 156.96C133.364 157.685 137.218 158.725 137.894 158.409C137.883 158.418 147.028 160.966 152.366 157.412Z" fill="black"/>
<path opacity="0.1" d="M149.324 113.158C148.957 112.617 148.511 112.134 148.001 111.726C146.03 110.062 147.975 91.2133 148.509 86.3693C150.787 86.2417 152.384 86.2852 152.52 86.6273C152.99 87.8013 149.945 108.92 149.324 113.158Z" fill="black"/>
<path opacity="0.1" d="M139.392 148.605V149.585C133.007 156.128 130.452 153.89 129.437 151.417C129.515 150.985 129.567 150.606 129.567 150.606C133.535 153.307 138.754 148.715 138.754 148.715C138.95 148.613 139.173 148.575 139.392 148.605Z" fill="black"/>
<path d="M152.018 88.1579C151.641 93.9788 148.703 113.897 148.703 113.897C148.703 113.897 147.052 121.191 146.703 121.452C146.355 121.712 144.184 123.191 144.184 123.191C144.184 123.191 144.097 126.58 143.4 127.539C142.704 128.499 142.443 130.928 142.443 130.928C142.443 130.928 141.313 135.789 140.965 138.222C140.617 140.654 139.401 143.953 139.401 143.953V149.252C131.372 157.476 129.396 151.826 128.931 149.275C128.864 148.922 128.818 148.566 128.792 148.208L133.314 120.767C133.314 120.767 134.269 119.463 134.095 118.77C133.921 118.077 134.443 117.205 134.443 117.205L134.429 115.642C134.429 115.642 135.488 114.254 134.429 113.471C133.369 112.688 134.429 106.783 134.429 106.783C134.429 106.783 133.227 103.397 133.848 102.435C134.469 101.472 133.848 99.9157 134.281 99.0461C134.713 98.1764 134.281 99.0461 132.716 96.7009C131.898 95.4776 131.201 93.2599 130.719 91.422C130.278 89.732 130.02 88.3637 130.02 88.3637C130.02 88.3637 151.498 85.3257 152.021 86.6244C152.087 87.1335 152.086 87.649 152.018 88.1579Z" fill="black"/>
<path opacity="0.1" d="M148.753 27.0524C148.024 27.9943 147.438 29.0373 147.011 30.1484C146.188 30.4092 145.329 30.5412 144.466 30.5397C141.371 30.5397 139.656 28.2641 138.196 25.7797C138.129 25.6667 137.079 26.1595 137.018 26.0435C137.256 24.4637 137.392 23.2316 137.392 23.2316C137.392 23.2316 152.52 22.133 148.753 27.0524Z" fill="black"/>
<path d="M152.868 21.9735C152.871 23.9306 152.19 25.8274 150.943 27.3368C149.695 28.8462 147.959 29.8736 146.035 30.2419C144.11 30.6101 142.117 30.2962 140.4 29.3542C138.682 28.4122 137.347 26.9012 136.626 25.0816C135.904 23.262 135.84 21.248 136.446 19.3867C137.052 17.5254 138.289 15.9335 139.944 14.8854C141.599 13.8374 143.568 13.3989 145.512 13.6456C147.456 13.8922 149.253 14.8086 150.593 16.2366C152.053 17.7909 152.867 19.842 152.868 21.9735Z" fill="#FABDBD"/>
<path opacity="0.1" d="M152.018 88.1579C149.179 88.6565 144.022 89.6334 143.601 90.219C143.02 91.0278 138.666 91.2597 136.054 91.6075C134.554 91.8076 132.354 91.6423 130.696 91.422C130.255 89.732 129.997 88.3637 129.997 88.3637C129.997 88.3637 151.475 85.3257 151.998 86.6244C152.072 87.1324 152.078 87.648 152.018 88.1579Z" fill="black"/>
<path d="M153.855 87.323C153.855 87.323 144.181 88.8855 143.601 89.6972C143.02 90.5089 138.666 90.7379 136.054 91.0857C133.442 91.4336 128.752 90.6799 128.403 90.448C126.371 89.0942 127.358 73.1967 128.229 71.2255C129.1 69.2543 128.81 58.2588 127.997 53.8583C127.184 49.4578 128.403 43.9586 128.403 43.9586C128.403 43.9586 129.619 40.0799 129.39 39.2682C129.161 38.4565 130.551 36.723 130.551 36.723C130.551 36.723 132.696 33.1893 133.796 32.6646C133.998 32.5679 134.176 32.4291 134.319 32.2575C134.462 32.086 134.567 31.8857 134.626 31.6703C134.832 31.0296 134.806 30.2208 134.841 29.5396C134.899 28.38 136.057 28.38 136.057 28.38C139.363 28.8989 147.13 33.7633 147.13 33.7633C146.84 34.8619 148.694 37.9898 148.694 37.9898C148.726 38.0391 148.753 38.0913 148.782 38.1464C150.813 41.97 152.291 53.6786 152.291 53.6786C152.291 53.6786 152.392 59.2705 152.375 63.3869C152.375 65.4422 152.326 67.1294 152.23 67.5729C152.061 68.3614 152.395 72.0227 152.735 75.5071C152.967 77.9161 153.205 80.2381 153.278 81.4672C153.469 84.485 153.855 87.323 153.855 87.323Z" fill="black"/>
<path opacity="0.1" d="M145.391 71.3444C145.391 71.3444 142.779 77.5972 143.479 78.522C144.178 79.4467 145.391 71.3444 145.391 71.3444Z" fill="black"/>
<path opacity="0.1" d="M148.636 74.3534C148.636 74.3534 145.682 78.9916 146.782 79.9105C147.882 80.8295 148.636 74.3534 148.636 74.3534Z" fill="black"/>
<path opacity="0.1" d="M139.392 147.507V149.069C131.364 157.293 129.387 151.643 128.923 149.092C130.383 150.345 133.732 151.904 139.392 147.507Z" fill="black"/>
<path d="M139.392 147.681V149.243C131.364 157.467 129.387 151.817 128.923 149.266C130.383 150.519 133.732 152.078 139.392 147.681Z" fill="black"/>
<path d="M138.437 152.125C138.557 152.125 138.655 152.027 138.655 151.907C138.655 151.787 138.557 151.69 138.437 151.69C138.317 151.69 138.219 151.787 138.219 151.907C138.219 152.027 138.317 152.125 138.437 152.125Z" fill="white"/>
<path d="M141.998 154.307C142.119 154.307 142.216 154.21 142.216 154.09C142.216 153.97 142.119 153.873 141.998 153.873C141.878 153.873 141.781 153.97 141.781 154.09C141.781 154.21 141.878 154.307 141.998 154.307Z" fill="white"/>
<path d="M140.634 153.412C140.755 153.412 140.852 153.314 140.852 153.194C140.852 153.074 140.755 152.977 140.634 152.977C140.514 152.977 140.417 153.074 140.417 153.194C140.417 153.314 140.514 153.412 140.634 153.412Z" fill="white"/>
<path d="M143.101 155.064C143.222 155.064 143.319 154.967 143.319 154.847C143.319 154.727 143.222 154.629 143.101 154.629C142.981 154.629 142.884 154.727 142.884 154.847C142.884 154.967 142.981 155.064 143.101 155.064Z" fill="white"/>
<path d="M139.61 152.762C139.73 152.762 139.827 152.665 139.827 152.545C139.827 152.425 139.73 152.327 139.61 152.327C139.489 152.327 139.392 152.425 139.392 152.545C139.392 152.665 139.489 152.762 139.61 152.762Z" fill="white"/>
<path opacity="0.1" d="M141.044 96.469C141.044 96.469 138.948 101.716 136.463 101.913C133.979 102.11 141.044 96.469 141.044 96.469Z" fill="black"/>
<path opacity="0.1" d="M141.392 104.461C141.392 104.461 138.086 110.076 137.102 110.134C136.118 110.192 141.392 104.461 141.392 104.461Z" fill="black"/>
<path opacity="0.1" d="M143.101 123.333C143.101 123.333 139.003 125.475 139.938 125.652C140.872 125.829 143.101 123.333 143.101 123.333Z" fill="black"/>
<path opacity="0.1" d="M134.957 123.333C134.957 123.333 139.076 121.654 139.798 121.654C140.521 121.654 134.957 123.333 134.957 123.333Z" fill="black"/>
<path opacity="0.1" d="M157.405 116.503C157.405 116.503 160.232 115.807 160.348 116.503C160.464 117.199 157.405 116.503 157.405 116.503Z" fill="black"/>
<path opacity="0.1" d="M160.116 119.924C160.116 119.924 157.623 119.976 157.971 120.793C158.319 121.611 160.116 119.924 160.116 119.924Z" fill="black"/>
<path opacity="0.1" d="M148.782 38.5C146.639 37.6623 142.904 36.0476 141.218 34.4039C139.531 32.7603 136.437 32.2182 134.626 32.021C134.832 31.3804 134.806 30.5716 134.841 29.8904C134.899 28.7308 136.057 28.7308 136.057 28.7308C139.363 29.2497 147.13 34.114 147.13 34.114C146.84 35.2127 148.694 38.3406 148.694 38.3406C148.726 38.3928 148.753 38.445 148.782 38.5Z" fill="black"/>
<path d="M148.782 38.1522C146.639 37.3144 142.904 35.6997 141.218 34.0589C139.531 32.4182 136.437 31.8703 134.626 31.6732C134.832 31.0325 134.806 30.2237 134.841 29.5425C134.899 28.3829 136.057 28.3829 136.057 28.3829C139.363 28.9018 147.13 33.7662 147.13 33.7662C146.84 34.8648 148.694 37.9927 148.694 37.9927C148.726 38.0449 148.753 38.0971 148.782 38.1522Z" fill="black"/>
<path opacity="0.1" d="M152.735 75.5129C149.292 73.2808 144.466 69.4949 144.466 69.2601C144.466 68.9702 142.492 66.8279 142.492 66.8279L138.608 59.7807L137.392 56.8818L140.875 53.235L148.471 58.0965L150.503 61.8012C151.177 62.2789 151.807 62.8154 152.386 63.4043C152.386 65.4596 152.337 67.1468 152.241 67.5903C152.061 68.3672 152.395 72.0285 152.735 75.5129Z" fill="black"/>
<path d="M137.566 56.1745L138.608 59.7807L142.672 66.1322C142.672 66.1322 144.643 68.2744 144.643 68.5643C144.643 68.8542 151.899 74.4693 154.961 76.0318C158.023 77.5943 161.927 78.8785 162.217 80.0033C162.507 81.1281 164.249 89.5232 169.183 86.8012C174.117 84.0791 167.793 77.9422 167.793 77.9422L163.729 74.3534C163.729 74.3534 155.06 67.5787 154.322 65.3234C153.585 63.068 150.686 61.0968 150.686 61.0968L148.654 57.3891L141.061 52.5277L137.566 56.1745Z" fill="#FABDBD"/>
<path opacity="0.1" d="M136.115 37.068C136.115 37.068 129.045 40.3118 131.248 45.4747C133.451 50.6377 138.26 60.1402 138.26 60.1402C138.26 60.1402 137.682 56.821 138.957 56.5311C140.231 56.2412 148.782 57.6645 148.782 57.6645C148.782 57.6645 146.433 53.809 146.84 51.6088C147.246 49.4085 143.769 35.1576 136.115 37.068Z" fill="black"/>
<path opacity="0.1" d="M136.812 36.5491C136.812 36.5491 129.741 39.79 131.941 44.9356C134.141 50.0811 138.957 59.6068 138.957 59.6068C138.957 59.6068 138.376 56.2905 139.653 56.0006C140.93 55.7107 148.985 57.2152 148.985 57.2152C148.985 57.2152 147.13 53.2785 147.534 51.0783C147.937 48.878 144.471 34.6358 136.812 36.5491Z" fill="black"/>
<path d="M136.463 36.7201C136.463 36.7201 129.393 39.964 131.596 45.1269C133.799 50.2898 138.608 59.7923 138.608 59.7923C138.608 59.7923 138.028 56.476 139.305 56.1861C140.582 55.8962 148.636 57.4007 148.636 57.4007C148.636 57.4007 146.782 53.4641 147.185 51.2638C147.589 49.0636 144.117 34.8098 136.463 36.7201Z" fill="black"/>
<path opacity="0.1" d="M150.593 16.2366C149.609 16.5613 148.561 16.7497 147.69 16.2598C147.089 15.9264 146.637 15.3003 145.949 15.1698C145.331 15.051 144.698 15.4075 144.3 15.8946C143.93 16.4072 143.637 16.9706 143.429 17.5672C142.99 18.6096 142.454 19.6083 141.827 20.5502C141.438 21.1299 140.922 21.7445 140.225 21.7735C139.27 21.817 138.626 20.7647 137.703 20.5096C135.448 19.8805 136.751 22.362 137.082 23.2983C137.409 24.2225 137.524 25.2082 137.418 26.1827C137.344 26.1999 137.268 26.2115 137.192 26.2175C136.164 24.4342 135.827 22.3363 136.244 20.3212C136.661 18.3061 137.803 16.5137 139.455 15.2836C141.106 14.0535 143.152 13.4711 145.205 13.6468C147.258 13.8224 149.175 14.7439 150.593 16.2366Z" fill="black"/>
<path d="M137.546 20.3299C138.466 20.585 139.111 21.6373 140.065 21.5967C140.765 21.5648 141.282 20.9531 141.668 20.3705C142.294 19.4317 142.831 18.4359 143.27 17.3962C143.478 16.7996 143.771 16.2361 144.141 15.7235C144.541 15.2365 145.171 14.88 145.789 14.9988C146.463 15.1293 146.915 15.7554 147.531 16.0888C148.628 16.7005 149.992 16.2569 151.165 15.7989C151.745 15.5786 152.381 15.2597 152.479 14.6626C152.549 14.2422 152.308 13.819 152.363 13.3957C152.418 12.9725 152.732 12.6768 152.944 12.329C153.156 11.9811 153.278 11.4796 152.979 11.1984C152.761 10.9955 152.421 11.01 152.143 10.9085C151.449 10.6389 151.272 9.70837 150.654 9.29093C149.986 8.8416 149.095 9.14309 148.288 9.18077C147.127 9.23295 146.045 8.69956 144.968 8.27342C143.891 7.84728 142.663 7.51971 141.598 7.96614C140.962 8.23574 140.469 8.74304 139.929 9.17208C138.873 10.0024 137.613 10.5331 136.281 10.7085C135.625 10.7954 134.908 10.8099 134.391 11.2187C133.741 11.7347 133.642 12.6855 133.767 13.5059C133.892 14.3263 134.182 15.1322 134.115 15.9555C134.011 17.2629 133.033 18.3383 132.708 19.608C132.635 19.8106 132.611 20.027 132.635 20.2406C132.66 20.4542 132.733 20.6592 132.85 20.8401C133.043 21.0323 133.265 21.1927 133.509 21.3155C133.82 21.5182 134.084 21.7869 134.28 22.1025C134.476 22.4181 134.6 22.7729 134.644 23.1418C134.687 23.5157 134.644 23.8955 134.702 24.2665C134.818 24.8341 135.151 25.3338 135.631 25.6588C136.111 25.9839 136.7 26.1084 137.27 26.0059C137.374 25.0314 137.259 24.046 136.934 23.1215C136.591 22.1823 135.291 19.7153 137.546 20.3299Z" fill="#7C5C5C"/>
<g opacity="0.1">
<path d="M151.083 9.71414C151.091 9.72849 151.1 9.74183 151.111 9.75387L151.083 9.71414Z" fill="black"/>
<path d="M152.909 12.2797C153.129 11.9347 153.246 11.4274 152.944 11.1491C152.894 11.1039 152.837 11.0667 152.775 11.0389C152.779 11.2949 152.704 11.5459 152.561 11.7579C152.34 12.1028 152.029 12.4188 151.98 12.8246C151.931 13.2305 152.163 13.6682 152.096 14.0886C151.998 14.6886 151.347 15.0046 150.781 15.2249C149.62 15.68 148.245 16.1265 147.145 15.5148C146.547 15.1785 146.094 14.5553 145.42 14.4248C144.802 14.306 144.17 14.6625 143.772 15.1496C143.402 15.6618 143.108 16.2253 142.901 16.8222C142.461 17.864 141.925 18.8626 141.299 19.8052C140.91 20.3849 140.396 20.9995 139.697 21.0285C138.742 21.0691 138.097 20.0197 137.174 19.7646C134.919 19.1355 136.222 21.617 136.553 22.5533C136.881 23.4823 136.996 24.4729 136.89 25.4522C136.514 25.5212 136.126 25.4912 135.764 25.3651C135.403 25.2391 135.081 25.0213 134.829 24.7333C135.039 25.1745 135.388 25.5349 135.823 25.759C136.257 25.9831 136.754 26.0587 137.235 25.974C137.342 24.9997 137.228 24.0139 136.902 23.0896C136.571 22.1532 135.268 19.6718 137.523 20.298C138.446 20.556 139.09 21.6054 140.045 21.5648C140.742 21.5358 141.258 20.9212 141.644 20.3414C142.271 19.3984 142.809 18.3987 143.249 17.3556C143.457 16.759 143.751 16.1955 144.12 15.6829C144.307 15.4282 144.558 15.2273 144.847 15.1005C145.137 14.9738 145.455 14.9257 145.769 14.9611C146.442 15.0916 146.895 15.7148 147.493 16.0482C148.593 16.6628 149.957 16.2163 151.13 15.7583C151.71 15.538 152.346 15.222 152.442 14.622C152.511 14.2016 152.27 13.7784 152.328 13.358C152.386 12.9377 152.688 12.6246 152.909 12.2797Z" fill="black"/>
<path d="M133.128 20.7357C132.969 20.6313 132.795 20.5415 132.644 20.4255C132.676 20.5549 132.734 20.6762 132.815 20.7821C133.009 20.9742 133.233 21.1346 133.477 21.2575C133.682 21.3916 133.866 21.5558 134.022 21.7445C133.82 21.3347 133.511 20.9864 133.128 20.7357Z" fill="black"/>
</g>
<path opacity="0.1" d="M153.565 20.4748C153.565 20.4748 151.199 18.8166 149.792 20.6052H148.944C148.097 18.1731 143.902 19.3008 143.902 19.3008L138.185 20.2342L138.292 20.6052L143.902 20.1472C143.902 20.1472 144.033 22.4286 144.794 23.1679C145.554 23.9071 147.206 23.4925 147.206 23.4925C148.204 23.365 148.683 21.7996 148.86 21.0285L149.678 21.0749C149.53 21.8605 149.432 23.394 150.77 23.9274C152.598 24.6434 153.179 23.0142 153.179 23.0142C153.179 23.0142 153.783 20.9096 153.565 20.4748Z" fill="black"/>
<path d="M153.565 20.2951C153.565 20.2951 151.199 18.6369 149.792 20.4255H148.944C148.097 17.9934 143.902 19.121 143.902 19.121L138.185 20.0574L138.292 20.4255L143.902 19.9704C143.902 19.9704 144.033 22.2489 144.794 22.9881C145.554 23.7274 147.206 23.3128 147.206 23.3128C148.204 23.1853 148.683 21.6199 148.86 20.8488L149.678 20.8952C149.53 21.6807 149.432 23.2143 150.77 23.7476C152.595 24.4637 153.161 22.8345 153.161 22.8345C153.161 22.8345 153.783 20.7357 153.565 20.2951Z" fill="#575757"/>
<path opacity="0.1" d="M284.566 121.315C287.262 121.315 289.448 120.947 289.448 120.492C289.448 120.037 287.262 119.669 284.566 119.669C281.87 119.669 279.684 120.037 279.684 120.492C279.684 120.947 281.87 121.315 284.566 121.315Z" fill="black"/>
<path d="M281.286 116.66C281.286 116.66 284.069 116.576 284.908 115.978C285.747 115.381 289.192 114.668 289.398 115.625C289.605 116.581 293.584 120.385 290.44 120.411C287.297 120.437 283.138 119.924 282.299 119.414C281.46 118.903 281.286 116.66 281.286 116.66Z" fill="#A8A8A8"/>
<path opacity="0.2" d="M290.496 120.077C287.352 120.104 283.193 119.59 282.369 119.08C281.733 118.692 281.478 117.3 281.393 116.657H281.301C281.301 116.657 281.478 118.901 282.314 119.411C283.149 119.921 287.312 120.434 290.455 120.408C291.363 120.408 291.677 120.077 291.66 119.602C291.517 119.892 291.172 120.072 290.496 120.077Z" fill="black"/>
<path opacity="0.1" d="M32.711 129.267C37.6627 129.267 41.6768 128.589 41.6768 127.754C41.6768 126.918 37.6627 126.24 32.711 126.24C27.7594 126.24 23.7452 126.918 23.7452 127.754C23.7452 128.589 27.7594 129.267 32.711 129.267Z" fill="black"/>
<path d="M26.6854 120.718C26.6854 120.718 31.8025 120.562 33.3437 119.463C34.885 118.364 41.2095 117.06 41.5926 118.816C41.9757 120.573 49.2697 127.554 43.5053 127.609C37.741 127.664 30.0871 126.71 28.5488 125.774C27.0105 124.837 26.6854 120.718 26.6854 120.718Z" fill="#A8A8A8"/>
<path opacity="0.2" d="M43.6069 126.997C37.8339 127.043 30.1916 126.098 28.6533 125.162C27.4923 124.449 27.0134 121.892 26.8567 120.712H26.6854C26.6854 120.712 27.0105 124.832 28.5488 125.768C30.0871 126.704 37.7294 127.649 43.5053 127.603C45.1714 127.588 45.749 126.997 45.717 126.119C45.4965 126.655 44.8492 126.974 43.6069 126.997Z" fill="black"/>
</g>
<defs>
<linearGradient id="paint0_linear_178_396" x1="127.21" y1="83.7168" x2="179.888" y2="83.7168" gradientUnits="userSpaceOnUse">
<stop stop-color="#808080" stop-opacity="0.25"/>
<stop offset="0.54" stop-color="#808080" stop-opacity="0.12"/>
<stop offset="1" stop-color="#808080" stop-opacity="0.1"/>
</linearGradient>
<clipPath id="clip0_178_396">
<rect width="329" height="178" fill="white"/>
</clipPath>
</defs>
</svg>
