<svg width="55" height="49" viewBox="0 0 55 49" fill="none" xmlns="http://www.w3.org/2000/svg">
<g clip-path="url(#clip0_362_71)">
<path d="M45.1223 13.499H38.5091C38.3432 13.4983 38.1784 13.526 38.0217 13.581C37.8356 13.6439 37.6636 13.7432 37.5158 13.8735C37.3679 14.0037 37.2471 14.1622 37.1603 14.3397C37.0734 14.5173 37.0222 14.7105 37.0097 14.9081C36.9972 15.1057 37.0236 15.3039 37.0874 15.4912C37.0874 15.4912 44.6836 47.4637 45.1385 48.8902H54.8877C45.1223 13.4991 50.1106 31.3053 45.1223 13.499Z" fill="#231F20"/>
<path d="M12.1214 48.8984C8.91523 48.8984 5.84035 47.6132 3.57323 45.3255C1.30612 43.0378 0.0324707 39.935 0.0324707 36.6997C0.0324707 33.4644 1.30612 30.3616 3.57323 28.0738C5.84035 25.7861 8.91523 24.5009 12.1214 24.5009V30.7396C10.5549 30.7396 9.05264 31.3676 7.94498 32.4853C6.83733 33.603 6.21505 35.119 6.21505 36.6997C6.21505 38.2804 6.83733 39.7963 7.94498 40.914C9.05264 42.0318 10.5549 42.6597 12.1214 42.6597C12.8977 42.6712 13.668 42.5205 14.3838 42.2172C15.0997 41.9139 15.7456 41.4644 16.281 40.8971C16.8316 40.3496 17.2672 39.6957 17.5617 38.9745C17.8563 38.2533 18.0037 37.4797 17.9953 36.6997H24.1779C24.1864 38.3013 23.8807 39.8888 23.2782 41.3706C22.6758 42.8524 21.7886 44.1991 20.6677 45.3332C19.5469 46.4673 18.2147 47.3661 16.7478 47.9781C15.281 48.59 13.7086 48.9028 12.1214 48.8984ZM31.4897 46.6276V34.4288H18.8402C18.0714 34.4531 17.3104 34.268 16.6371 33.8929C15.9637 33.5178 15.4029 32.9666 15.0137 32.2973C14.5741 31.651 14.3111 30.8992 14.2512 30.1177C14.1913 29.3362 14.3366 28.5525 14.6724 27.8457L19.287 17.6309H14.3393L12.9338 21.0905L7.6368 19.623L9.21292 15.8191C9.62985 14.7336 10.3672 13.8035 11.3252 13.1548C12.294 12.5306 13.4259 12.2136 14.5749 12.2448H25.9489C28.045 12.2448 29.5616 12.9908 30.4986 14.4828C30.9621 15.2439 31.2168 16.1156 31.2368 17.0087C31.2568 17.9018 31.0413 18.7842 30.6123 19.5656L27.2407 26.9931H31.5141C32.3324 26.9802 33.1445 27.1382 33.8995 27.457C34.6544 27.7759 35.3359 28.2487 35.9012 28.8459C36.4821 29.4277 36.9406 30.1218 37.2491 30.8868C37.5576 31.6517 37.7099 32.4717 37.6967 33.2974V46.6276H31.4897ZM31.6603 11.5069C30.4391 11.495 29.2597 11.0569 28.3222 10.2672C27.3847 9.47743 26.7469 8.38464 26.5172 7.17431C26.2874 5.96398 26.4798 4.71072 27.0617 3.62727C27.6436 2.54382 28.5791 1.69695 29.7095 1.23044C30.8398 0.763934 32.0954 0.706525 33.2629 1.06797C34.4304 1.42942 35.438 2.18743 36.1146 3.21334C36.7912 4.23925 37.0952 5.46984 36.9748 6.69618C36.8545 7.92251 36.3172 9.06902 35.4544 9.94109C34.9621 10.4506 34.3713 10.8526 33.7186 11.1219C33.0659 11.3913 32.3653 11.5224 31.6603 11.5069Z" fill="#231F20"/>
</g>
<defs>
<clipPath id="clip0_362_71">
<rect width="55" height="49" fill="white"/>
</clipPath>
</defs>
</svg>
