<svg width="50" height="61" viewBox="0 0 50 61" fill="none" xmlns="http://www.w3.org/2000/svg">
<path fill-rule="evenodd" clip-rule="evenodd" d="M42.5031 41.4209C46.5322 37.1279 49 31.3521 49 25C49 11.7452 38.2548 1 25 1C11.7452 1 1 11.7452 1 25C1 31.6151 3.67632 37.6051 8.00524 41.9463L23.5278 59.3294C24.323 60.2199 25.7162 60.2199 26.5114 59.3294L42.5031 41.4209Z" fill="#FFF1C2"/>
<path d="M42.5031 41.4209L41.7739 40.7365L41.7655 40.7456L41.7572 40.7548L42.5031 41.4209ZM8.00524 41.9463L8.75113 41.2803L8.73279 41.2597L8.71335 41.2402L8.00524 41.9463ZM23.5278 59.3294L22.7819 59.9955L22.7819 59.9955L23.5278 59.3294ZM26.5114 59.3294L25.7655 58.6633L25.7655 58.6633L26.5114 59.3294ZM48 25C48 31.088 45.636 36.6216 41.7739 40.7365L43.2323 42.1052C47.4285 37.6342 50 31.6163 50 25H48ZM25 2C37.7025 2 48 12.2975 48 25H50C50 11.1929 38.8071 0 25 0V2ZM2 25C2 12.2975 12.2975 2 25 2V0C11.1929 0 0 11.1929 0 25H2ZM8.71335 41.2402C4.56371 37.0788 2 31.3398 2 25H0C0 31.8904 2.78892 38.1314 7.29713 42.6524L8.71335 41.2402ZM24.2737 58.6633L8.75113 41.2803L7.25934 42.6124L22.7819 59.9955L24.2737 58.6633ZM25.7655 58.6633C25.3679 59.1086 24.6713 59.1086 24.2737 58.6633L22.7819 59.9955C23.9747 61.3312 26.0645 61.3312 27.2572 59.9955L25.7655 58.6633ZM41.7572 40.7548L25.7655 58.6633L27.2572 59.9955L43.249 42.0869L41.7572 40.7548Z" fill="#975102"/>
<mask id="mask0_269_170" style="mask-type:alpha" maskUnits="userSpaceOnUse" x="11" y="11" width="28" height="28">
<rect x="11" y="11" width="28" height="28" fill="white"/>
</mask>
<g mask="url(#mask0_269_170)">
<path d="M34.4199 36.5127L32 34.1V34.9167H30.6627V32.7627L27.5523 29.6524H23.6913C22.8233 29.6524 22.1608 29.2989 21.7038 28.5919C21.2469 27.8849 21.1976 27.141 21.556 26.3604L22.4085 24.5086L13.4873 15.5801L14.5373 14.5374L35.4626 35.4627L34.4199 36.5127ZM32.1286 29.221L29.8049 26.8973H30.173C30.6741 26.9572 31.1103 27.1728 31.4817 27.5442C31.8531 27.9156 32.0687 28.3544 32.1286 28.8605V29.221ZM27.1536 24.2461L22.3338 19.4382H26.3201C27.0479 19.4382 27.6101 19.719 28.0068 20.2806C28.4032 20.8423 28.4457 21.4614 28.1342 22.1379L27.1536 24.2461ZM20.3467 36.0834C18.8969 36.0834 17.6573 35.5629 16.6277 34.5221C15.5981 33.4814 15.0833 32.2361 15.0833 30.7861C15.0833 29.3363 15.6018 28.0929 16.6388 27.056C17.6759 26.0188 18.9157 25.5002 20.3581 25.5002V26.9772C19.3139 26.9772 18.4181 27.351 17.6707 28.0987C16.923 28.8463 16.5492 29.7421 16.5492 30.7861C16.5492 31.8303 16.923 32.7262 17.6707 33.4738C18.4181 34.2213 19.3176 34.595 20.3692 34.595C21.4157 34.595 22.3088 34.2304 23.0484 33.5012C23.7881 32.7721 24.1579 31.8157 24.1579 30.6321H25.6236C25.6236 32.2137 25.1054 33.5177 24.069 34.5439C23.0324 35.5702 21.7916 36.0834 20.3467 36.0834ZM28.838 18.5656C28.285 18.5656 27.8136 18.3705 27.4237 17.9805C27.0339 17.5906 26.8389 17.1193 26.8389 16.5665C26.8389 16.0135 27.0339 15.542 27.4237 15.1522C27.8136 14.7623 28.285 14.5674 28.838 14.5674C29.3908 14.5674 29.8603 14.7623 30.2465 15.1522C30.6326 15.542 30.8257 16.0135 30.8257 16.5665C30.8257 17.1193 30.6326 17.5906 30.2465 17.9805C29.8603 18.3705 29.3908 18.5656 28.838 18.5656Z" fill="#975102"/>
</g>
</svg>
