<svg width="50" height="61" viewBox="0 0 50 61" fill="none" xmlns="http://www.w3.org/2000/svg">
<path fill-rule="evenodd" clip-rule="evenodd" d="M42.5031 41.4209C46.5322 37.1279 49 31.3521 49 25C49 11.7452 38.2548 1 25 1C11.7452 1 1 11.7452 1 25C1 31.6151 3.67632 37.6051 8.00524 41.9463L23.5278 59.3294C24.323 60.2199 25.7162 60.2199 26.5114 59.3294L42.5031 41.4209Z" fill="#FDD3D0"/>
<path d="M42.5031 41.4209L41.7739 40.7365L41.7655 40.7456L41.7572 40.7548L42.5031 41.4209ZM8.00524 41.9463L8.75113 41.2803L8.73279 41.2597L8.71335 41.2402L8.00524 41.9463ZM23.5278 59.3294L22.7819 59.9955L22.7819 59.9955L23.5278 59.3294ZM26.5114 59.3294L25.7655 58.6633L25.7655 58.6633L26.5114 59.3294ZM48 25C48 31.088 45.636 36.6216 41.7739 40.7365L43.2323 42.1052C47.4285 37.6342 50 31.6163 50 25H48ZM25 2C37.7025 2 48 12.2975 48 25H50C50 11.1929 38.8071 0 25 0V2ZM2 25C2 12.2975 12.2975 2 25 2V0C11.1929 0 0 11.1929 0 25H2ZM8.71335 41.2402C4.56371 37.0788 2 31.3398 2 25H0C0 31.8904 2.78892 38.1314 7.29713 42.6524L8.71335 41.2402ZM24.2737 58.6633L8.75113 41.2803L7.25934 42.6124L22.7819 59.9955L24.2737 58.6633ZM25.7655 58.6633C25.3679 59.1086 24.6713 59.1086 24.2737 58.6633L22.7819 59.9955C23.9747 61.3312 26.0645 61.3312 27.2572 59.9955L25.7655 58.6633ZM41.7572 40.7548L25.7655 58.6633L27.2572 59.9955L43.249 42.0869L41.7572 40.7548Z" fill="#C00F0C"/>
<mask id="mask0_269_142" style="mask-type:alpha" maskUnits="userSpaceOnUse" x="11" y="11" width="28" height="28">
<rect x="11.5" y="11.5" width="27" height="27" fill="#FFFBEB" stroke="white"/>
</mask>
<g mask="url(#mask0_269_142)">
<path d="M34.4199 36.4832L32.0147 34.0853L31.9791 34.0498V34.1V34.8959H30.6835V32.7627V32.7541L30.6774 32.748L27.5671 29.6377L27.561 29.6316H27.5523H23.6913C22.8301 29.6316 22.1743 29.2814 21.7213 28.5806C21.2684 27.8797 21.2194 27.1434 21.5749 26.369L22.4274 24.5173L22.4335 24.5041L22.4232 24.4938L13.5168 15.5801L14.5373 14.5668L35.4332 35.4627L34.4199 36.4832ZM30.2317 17.9658L30.2465 17.9805L30.2317 17.9658C29.8494 18.3519 29.3853 18.5447 28.838 18.5447C28.2905 18.5447 27.8244 18.3519 27.4385 17.9658C27.0525 17.5798 26.8598 17.1138 26.8598 16.5665C26.8598 16.019 27.0525 15.5529 27.4385 15.1669C27.8244 14.781 28.2905 14.5882 28.838 14.5882C29.3853 14.5882 29.8494 14.781 30.2317 15.1668C30.6139 15.5528 30.8049 16.0189 30.8049 16.5665C30.8049 17.1138 30.6139 17.5799 30.2317 17.9658ZM32.1078 28.8617V29.1707L29.8552 26.9181H30.1717C30.6675 26.9777 31.099 27.191 31.4669 27.559C31.8348 27.9268 32.0482 28.3609 32.1078 28.8617ZM28.1153 22.1292L27.1473 24.2103L22.3842 19.4591H26.3201C27.0416 19.4591 27.5972 19.7369 27.9897 20.2926C28.3815 20.8476 28.424 21.4587 28.1153 22.1291C28.1153 22.1291 28.1153 22.1292 28.1153 22.1292ZM20.3467 36.0625C18.9026 36.0625 17.6682 35.5444 16.6425 34.5074C15.6167 33.4706 15.1041 32.2305 15.1041 30.7861C15.1041 29.3419 15.6204 28.1038 16.6535 27.0707C17.6818 26.0424 18.9094 25.5261 20.3373 25.5211V26.9564C19.2964 26.9614 18.4023 27.3374 17.6559 28.084C16.9045 28.8354 16.5284 29.7365 16.5284 30.7861C16.5284 31.8359 16.9045 32.7371 17.6559 33.4885C18.4073 34.2399 19.3121 34.6158 20.3692 34.6158C21.4211 34.6158 22.3195 34.2491 23.0631 33.5161C23.8029 32.7867 24.1744 31.8317 24.1787 30.6529H25.6027C25.5982 32.2201 25.0818 33.5116 24.0543 34.5291C23.0216 35.5516 21.7861 36.0625 20.3467 36.0625Z" fill="#900B09" stroke="white" stroke-width="0.0416667"/>
</g>
</svg>
