<svg width="48" height="59" viewBox="0 0 48 59" fill="none" xmlns="http://www.w3.org/2000/svg">
<mask id="path-1-inside-1_21_154" fill="white">
<path fill-rule="evenodd" clip-rule="evenodd" d="M41.5031 40.4209C45.5322 36.1279 48 30.3521 48 24C48 10.7452 37.2548 0 24 0C10.7452 0 0 10.7452 0 24C0 30.6151 2.67632 36.6051 7.00525 40.9464L22.5278 58.3294C23.323 59.2199 24.7162 59.2199 25.5114 58.3294L41.5031 40.4209Z"/>
</mask>
<path fill-rule="evenodd" clip-rule="evenodd" d="M41.5031 40.4209C45.5322 36.1279 48 30.3521 48 24C48 10.7452 37.2548 0 24 0C10.7452 0 0 10.7452 0 24C0 30.6151 2.67632 36.6051 7.00525 40.9464L22.5278 58.3294C23.323 59.2199 24.7162 59.2199 25.5114 58.3294L41.5031 40.4209Z" fill="white"/>
<path d="M41.5031 40.4209L40.0448 39.0522L40.0278 39.0703L40.0113 39.0888L41.5031 40.4209ZM7.00525 40.9464L8.49705 39.6142L8.46036 39.5731L8.42147 39.5341L7.00525 40.9464ZM22.5278 58.3294L21.036 59.6615L21.036 59.6615L22.5278 58.3294ZM25.5114 58.3294L24.0196 56.9973L24.0196 56.9973L25.5114 58.3294ZM46 24C46 29.8238 43.7398 35.1153 40.0448 39.0522L42.9614 41.7896C47.3247 37.1406 50 30.8805 50 24H46ZM24 2C36.1503 2 46 11.8497 46 24H50C50 9.6406 38.3594 -2 24 -2V2ZM2 24C2 11.8497 11.8497 2 24 2V-2C9.6406 -2 -2 9.6406 -2 24H2ZM8.42147 39.5341C4.45112 35.5525 2 30.0644 2 24H-2C-2 31.1658 0.901525 37.6577 5.58904 42.3586L8.42147 39.5341ZM24.0196 56.9973L8.49705 39.6142L5.51346 42.2785L21.036 59.6615L24.0196 56.9973ZM24.0196 56.9973L24.0196 56.9973L21.036 59.6615C22.6264 61.4425 25.4128 61.4425 27.0031 59.6615L24.0196 56.9973ZM40.0113 39.0888L24.0196 56.9973L27.0031 59.6615L42.9949 41.753L40.0113 39.0888Z" fill="#303030" mask="url(#path-1-inside-1_21_154)"/>
<mask id="mask0_21_154" style="mask-type:alpha" maskUnits="userSpaceOnUse" x="10" y="10" width="28" height="28">
<rect x="10" y="10" width="28" height="28" fill="#D9D9D9"/>
</mask>
<g mask="url(#mask0_21_154)">
<path d="M28.1924 25.2652L27.0797 24.1525C27.4153 22.955 27.1385 21.943 26.2493 21.1166C25.3599 20.2902 24.3649 20.0303 23.2641 20.3369L22.1514 19.2242C22.4145 19.0821 22.7009 18.9762 23.0107 18.9066C23.3202 18.8372 23.65 18.8025 24 18.8025C25.2868 18.8025 26.3776 19.2498 27.2722 20.1445C28.1669 21.0391 28.6142 22.1298 28.6142 23.4167C28.6142 23.7667 28.5774 24.1022 28.5039 24.4232C28.4304 24.7442 28.3266 25.0249 28.1924 25.2652ZM31.9153 28.9388L30.8804 27.9532C31.722 27.3234 32.4637 26.6258 33.1055 25.8602C33.7476 25.0947 34.2543 24.2802 34.6257 23.4167C33.6535 21.3581 32.2262 19.7266 30.3438 18.5222C28.4613 17.318 26.3941 16.7159 24.142 16.7159C23.4545 16.7159 22.7634 16.7744 22.0689 16.8915C21.3745 17.0087 20.7728 17.1571 20.2638 17.3366L19.133 16.1938C19.8125 15.9086 20.5913 15.68 21.4692 15.5081C22.3473 15.336 23.2158 15.25 24.0747 15.25C26.7302 15.25 29.1598 15.9946 31.3634 17.4839C33.5671 18.9731 35.181 20.9507 36.2051 23.4167C35.7439 24.509 35.1547 25.5181 34.4376 26.4439C33.7203 27.3698 32.8795 28.2014 31.9153 28.9388ZM33.3946 35.4033L28.6743 30.7308C28.076 30.981 27.3728 31.1857 26.5649 31.3447C25.757 31.5038 24.902 31.5833 24 31.5833C21.3033 31.5833 18.856 30.8387 16.6582 29.3495C14.4606 27.8602 12.8395 25.8826 11.7949 23.4167C12.2176 22.3941 12.7865 21.4183 13.5015 20.4892C14.2164 19.5601 15.0312 18.7246 15.9456 17.9826L12.4859 14.5185L13.5181 13.4746L34.3833 34.3399L33.3946 35.4033ZM16.9583 19.0148C16.2682 19.5182 15.5825 20.175 14.9012 20.985C14.2198 21.7949 13.7069 22.6054 13.3623 23.4167C14.3425 25.4752 15.785 27.1067 17.6898 28.3111C19.5948 29.5153 21.735 30.1174 24.1105 30.1174C24.7703 30.1174 25.424 30.0653 26.0717 29.9611C26.7194 29.857 27.208 29.7346 27.5373 29.5939L25.6663 27.7109C25.4623 27.8075 25.2018 27.885 24.8846 27.9433C24.5677 28.0017 24.2728 28.0308 24 28.0308C22.7211 28.0308 21.6324 27.5855 20.7336 26.695C19.8351 25.8042 19.3858 24.7115 19.3858 23.4167C19.3858 23.1435 19.415 22.8541 19.4733 22.5487C19.5317 22.2434 19.6092 21.9773 19.7058 21.7504L16.9583 19.0148Z" fill="#2C2C2C"/>
</g>
</svg>
