<svg width="48" height="59" viewBox="0 0 48 59" fill="none" xmlns="http://www.w3.org/2000/svg">
<mask id="path-1-inside-1_21_137" fill="white">
<path fill-rule="evenodd" clip-rule="evenodd" d="M41.5031 40.4209C45.5322 36.1279 48 30.3521 48 24C48 10.7452 37.2548 0 24 0C10.7452 0 0 10.7452 0 24C0 30.6151 2.67632 36.6051 7.00525 40.9464L22.5278 58.3294C23.323 59.2199 24.7162 59.2199 25.5114 58.3294L41.5031 40.4209Z"/>
</mask>
<path fill-rule="evenodd" clip-rule="evenodd" d="M41.5031 40.4209C45.5322 36.1279 48 30.3521 48 24C48 10.7452 37.2548 0 24 0C10.7452 0 0 10.7452 0 24C0 30.6151 2.67632 36.6051 7.00525 40.9464L22.5278 58.3294C23.323 59.2199 24.7162 59.2199 25.5114 58.3294L41.5031 40.4209Z" fill="white"/>
<path d="M41.5031 40.4209L40.0448 39.0522L40.0278 39.0703L40.0113 39.0888L41.5031 40.4209ZM7.00525 40.9464L8.49705 39.6142L8.46036 39.5731L8.42147 39.5341L7.00525 40.9464ZM22.5278 58.3294L21.036 59.6615L21.036 59.6615L22.5278 58.3294ZM25.5114 58.3294L24.0196 56.9973L24.0196 56.9973L25.5114 58.3294ZM46 24C46 29.8238 43.7398 35.1153 40.0448 39.0522L42.9614 41.7896C47.3247 37.1406 50 30.8805 50 24H46ZM24 2C36.1503 2 46 11.8497 46 24H50C50 9.6406 38.3594 -2 24 -2V2ZM2 24C2 11.8497 11.8497 2 24 2V-2C9.6406 -2 -2 9.6406 -2 24H2ZM8.42147 39.5341C4.45112 35.5525 2 30.0644 2 24H-2C-2 31.1658 0.901525 37.6577 5.58904 42.3586L8.42147 39.5341ZM24.0196 56.9973L8.49705 39.6142L5.51346 42.2785L21.036 59.6615L24.0196 56.9973ZM24.0196 56.9973L24.0196 56.9973L21.036 59.6615C22.6264 61.4425 25.4128 61.4425 27.0031 59.6615L24.0196 56.9973ZM40.0113 39.0888L24.0196 56.9973L27.0031 59.6615L42.9949 41.753L40.0113 39.0888Z" fill="#303030" mask="url(#path-1-inside-1_21_137)"/>
<mask id="mask0_21_137" style="mask-type:alpha" maskUnits="userSpaceOnUse" x="10" y="10" width="28" height="28">
<rect x="10" y="10" width="28" height="28" fill="#D9D9D9"/>
</mask>
<g mask="url(#mask0_21_137)">
<path d="M33.42 35.5127L31 33.1V33.9167H29.6627V31.7627L26.5524 28.6524H22.6913C21.8233 28.6524 21.1609 28.2989 20.7039 27.5919C20.247 26.8849 20.1977 26.141 20.556 25.3603L21.4086 23.5085L12.4874 14.58L13.5374 13.5373L34.4627 34.4627L33.42 35.5127ZM31.1287 28.221L28.8049 25.8973H29.173C29.6741 25.9572 30.1103 26.1728 30.4817 26.5442C30.8531 26.9156 31.0688 27.3544 31.1287 27.8605V28.221ZM26.1537 23.246L21.3339 18.4382H25.3201C26.0479 18.4382 26.6102 18.719 27.0068 19.2805C27.4033 19.8423 27.4458 20.4614 27.1343 21.1379L26.1537 23.246ZM19.3468 35.0833C17.897 35.0833 16.6573 34.5629 15.6277 33.522C14.5982 32.4814 14.0834 31.2361 14.0834 29.7861C14.0834 28.3363 14.6019 27.0929 15.6388 26.056C16.676 25.0188 17.9158 24.5002 19.3582 24.5002V25.9772C18.314 25.9772 17.4182 26.351 16.6707 27.0987C15.9231 27.8463 15.5493 28.7421 15.5493 29.7861C15.5493 30.8302 15.9231 31.7261 16.6707 32.4738C17.4182 33.2212 18.3177 33.595 19.3692 33.595C20.4157 33.595 21.3088 33.2304 22.0485 32.5012C22.7882 31.772 23.158 30.8157 23.158 29.6321H24.6236C24.6236 31.2137 24.1054 32.5176 23.069 33.5439C22.0324 34.5702 20.7917 35.0833 19.3468 35.0833ZM27.8381 17.5655C27.2851 17.5655 26.8136 17.3705 26.4238 16.9805C26.0339 16.5906 25.839 16.1193 25.839 15.5665C25.839 15.0135 26.0339 14.542 26.4238 14.1522C26.8136 13.7623 27.2851 13.5674 27.8381 13.5674C28.3909 13.5674 28.8604 13.7623 29.2465 14.1522C29.6327 14.542 29.8258 15.0135 29.8258 15.5665C29.8258 16.1193 29.6327 16.5906 29.2465 16.9805C28.8604 17.3705 28.3909 17.5655 27.8381 17.5655Z" fill="#2C2C2C"/>
</g>
</svg>
