<svg width="28" height="28" viewBox="0 0 28 28" fill="none" xmlns="http://www.w3.org/2000/svg">
<mask id="mask0_167_1031" style="mask-type:alpha" maskUnits="userSpaceOnUse" x="0" y="0" width="28" height="28">
<rect width="28" height="28" fill="#D9D9D9"/>
</mask>
<g mask="url(#mask0_167_1031)">
<path d="M23.42 25.5127L21 23.1V23.9167H19.6627V21.7627L16.5524 18.6524H12.6913C11.8233 18.6524 11.1608 18.2989 10.7039 17.5919C10.2469 16.8849 10.1977 16.141 10.556 15.3604L11.4086 13.5086L2.48735 4.58006L3.53735 3.53735L24.4627 24.4627L23.42 25.5127ZM21.1286 18.221L18.8049 15.8973H19.173C19.6741 15.9572 20.1103 16.1728 20.4817 16.5442C20.8531 16.9156 21.0688 17.3544 21.1286 17.8605V18.221ZM16.1537 13.2461L11.3339 8.43823H15.3201C16.0479 8.43823 16.6101 8.71901 17.0068 9.28056C17.4033 9.84231 17.4458 10.4614 17.1343 11.1379L16.1537 13.2461ZM9.34677 25.0834C7.89699 25.0834 6.65731 24.5629 5.62773 23.5221C4.59814 22.4814 4.08335 21.2361 4.08335 19.7861C4.08335 18.3363 4.60184 17.0929 5.63881 16.056C6.67598 15.0188 7.91575 14.5002 9.35814 14.5002V15.9772C8.31398 15.9772 7.41817 16.351 6.67073 17.0987C5.92309 17.8463 5.54927 18.7421 5.54927 19.7861C5.54927 20.8303 5.92309 21.7262 6.67073 22.4738C7.41817 23.2213 8.31767 23.595 9.36923 23.595C10.4157 23.595 11.3088 23.2304 12.0485 22.5012C12.7881 21.7721 13.158 20.8157 13.158 19.6321H14.6236C14.6236 21.2137 14.1054 22.5177 13.069 23.5439C12.0324 24.5702 10.7917 25.0834 9.34677 25.0834ZM17.8381 7.56556C17.2851 7.56556 16.8136 7.37053 16.4238 6.98048C16.0339 6.59062 15.839 6.11928 15.839 5.56648C15.839 5.01348 16.0339 4.54205 16.4238 4.15219C16.8136 3.76232 17.2851 3.56739 17.8381 3.56739C18.3909 3.56739 18.8603 3.76232 19.2465 4.15219C19.6327 4.54205 19.8258 5.01348 19.8258 5.56648C19.8258 6.11928 19.6327 6.59062 19.2465 6.98048C18.8603 7.37053 18.3909 7.56556 17.8381 7.56556Z" fill="white"/>
</g>
</svg>
