<svg width="50" height="61" viewBox="0 0 50 61" fill="none" xmlns="http://www.w3.org/2000/svg">
<path fill-rule="evenodd" clip-rule="evenodd" d="M42.5031 41.4209C46.5322 37.1279 49 31.3521 49 25C49 11.7452 38.2548 1 25 1C11.7452 1 1 11.7452 1 25C1 31.6151 3.67632 37.6051 8.00524 41.9463L23.5278 59.3294C24.323 60.2199 25.7162 60.2199 26.5114 59.3294L42.5031 41.4209Z" fill="#EBFFEE"/>
<path d="M42.5031 41.4209L41.7739 40.7365L41.7655 40.7456L41.7572 40.7548L42.5031 41.4209ZM8.00524 41.9463L8.75113 41.2803L8.73279 41.2597L8.71335 41.2402L8.00524 41.9463ZM23.5278 59.3294L22.7819 59.9955L22.7819 59.9955L23.5278 59.3294ZM26.5114 59.3294L25.7655 58.6633L25.7655 58.6633L26.5114 59.3294ZM48 25C48 31.088 45.636 36.6216 41.7739 40.7365L43.2323 42.1052C47.4285 37.6342 50 31.6163 50 25H48ZM25 2C37.7025 2 48 12.2975 48 25H50C50 11.1929 38.8071 0 25 0V2ZM2 25C2 12.2975 12.2975 2 25 2V0C11.1929 0 0 11.1929 0 25H2ZM8.71335 41.2402C4.56371 37.0788 2 31.3398 2 25H0C0 31.8904 2.78892 38.1314 7.29713 42.6524L8.71335 41.2402ZM24.2737 58.6633L8.75113 41.2803L7.25934 42.6124L22.7819 59.9955L24.2737 58.6633ZM25.7655 58.6633C25.3679 59.1086 24.6713 59.1086 24.2737 58.6633L22.7819 59.9955C23.9747 61.3312 26.0645 61.3312 27.2572 59.9955L25.7655 58.6633ZM41.7572 40.7548L25.7655 58.6633L27.2572 59.9955L43.249 42.0869L41.7572 40.7548Z" fill="#14AE5C"/>
<mask id="mask0_269_185" style="mask-type:alpha" maskUnits="userSpaceOnUse" x="11" y="11" width="28" height="28">
<rect x="11" y="11" width="28" height="28" fill="#D9D9D9"/>
</mask>
<g mask="url(#mask0_269_185)">
<path d="M29.1924 26.2652L28.0797 25.1525C28.4153 23.9549 28.1385 22.943 27.2493 22.1166C26.3599 21.2902 25.3649 21.0303 24.2641 21.3369L23.1514 20.2242C23.4145 20.0821 23.7009 19.9762 24.0107 19.9066C24.3202 19.8372 24.65 19.8025 25 19.8025C26.2868 19.8025 27.3776 20.2498 28.2722 21.1444C29.1669 22.0391 29.6142 23.1298 29.6142 24.4167C29.6142 24.7667 29.5774 25.1022 29.5039 25.4232C29.4304 25.7442 29.3266 26.0249 29.1924 26.2652ZM32.9153 29.9388L31.8804 28.9532C32.722 28.3234 33.4637 27.6258 34.1055 26.8602C34.7476 26.0947 35.2543 25.2802 35.6257 24.4167C34.6535 22.3581 33.2262 20.7266 31.3438 19.5222C29.4613 18.318 27.3941 17.7159 25.142 17.7159C24.4545 17.7159 23.7634 17.7744 23.0689 17.8915C22.3745 18.0087 21.7728 18.1571 21.2638 18.3366L20.133 17.1938C20.8125 16.9086 21.5913 16.68 22.4692 16.5081C23.3473 16.336 24.2158 16.25 25.0747 16.25C27.7302 16.25 30.1598 16.9946 32.3634 18.4839C34.5671 19.9731 36.181 21.9507 37.2051 24.4167C36.7439 25.509 36.1547 26.5181 35.4376 27.4439C34.7203 28.3698 33.8795 29.2014 32.9153 29.9388ZM34.3946 36.4033L29.6743 31.7308C29.076 31.981 28.3728 32.1857 27.5649 32.3447C26.757 32.5038 25.902 32.5833 25 32.5833C22.3033 32.5833 19.856 31.8387 17.6582 30.3494C15.4606 28.8602 13.8395 26.8826 12.7949 24.4167C13.2176 23.3941 13.7865 22.4182 14.5015 21.4892C15.2164 20.5601 16.0312 19.7246 16.9456 18.9826L13.4859 15.5185L14.5181 14.4746L35.3833 35.3399L34.3946 36.4033ZM17.9583 20.0148C17.2682 20.5182 16.5825 21.175 15.9012 21.985C15.2198 22.7949 14.7069 23.6054 14.3623 24.4167C15.3425 26.4752 16.785 28.1067 18.6898 29.3111C20.5948 30.5153 22.735 31.1174 25.1105 31.1174C25.7703 31.1174 26.424 31.0653 27.0717 30.9611C27.7194 30.857 28.208 30.7346 28.5373 30.5939L26.6663 28.7109C26.4623 28.8075 26.2018 28.885 25.8846 28.9433C25.5677 29.0017 25.2728 29.0308 25 29.0308C23.7211 29.0308 22.6324 28.5855 21.7336 27.695C20.8351 26.8042 20.3858 25.7115 20.3858 24.4167C20.3858 24.1435 20.415 23.8541 20.4733 23.5487C20.5317 23.2434 20.6092 22.9773 20.7058 22.7504L17.9583 20.0148Z" fill="#14AE5C"/>
</g>
</svg>
